<?xml version="1.0" standalone="yes"?>
<svg xmlns="http://www.w3.org/2000/svg" width="720" height="1024">
<path style="fill:#010101; stroke:none;" d="M567 237C565.248 231.045 561.585 225.461 556.96 221.3C531.082 198.02 492.55 215.075 482.359 246C469.448 285.178 502.23 324.596 525.729 352C532.174 359.515 539.02 366.981 546.004 373.999C548.304 376.31 551.372 380.33 555 380.248C558.14 380.178 560.766 377.13 563 375.285C567.589 371.494 572.263 367.734 577 364.13C599.565 346.964 623.413 328.104 638.911 304C652.447 282.947 654.128 257.933 639.652 237C633.557 228.186 623.968 220.515 613 219.184C601.61 217.802 590.654 220.002 581 226.243C576.045 229.446 571.862 233.675 567 237z"/>
<path style="fill:#ccc8c7; stroke:none;" d="M537.667 210.333C537.222 210.778 538.278 210.722 538.333 210.667C538.778 210.222 537.722 210.278 537.667 210.333z"/>
<path style="fill:#73403f; stroke:none;" d="M523.667 218.333C523.222 218.778 524.278 218.722 524.333 218.667C524.778 218.222 523.722 218.278 523.667 218.333z"/>
<path style="fill:#ccc6c6; stroke:none;" d="M598.667 218.333C598.222 218.778 599.278 218.722 599.333 218.667C599.778 218.222 598.722 218.278 598.667 218.333z"/>
<path style="fill:#787473; stroke:none;" d="M600.667 218.333C600.222 218.778 601.278 218.722 601.333 218.667C601.778 218.222 600.722 218.278 600.667 218.333z"/>
<path style="fill:#d58e88; stroke:none;" d="M518 223C521.667 223.41 525.31 223.028 529 223C527.744 222.086 522.609 221.495 525 220C521.456 217.422 520.011 220.318 518 223z"/>
<path style="fill:#dc7e7c; stroke:none;" d="M523 221L536 225C537.543 223.733 538.048 223.511 540 223C538.281 217.123 527.054 217.908 523 221z"/>
<path style="fill:#ca7c7a; stroke:none;" d="M491 249C495.784 245.269 498.557 237.646 503 233L503 235C508.701 231.032 513.496 226.722 520 224C519.402 222.805 519.534 223.023 518 222C519.537 221.31 519.338 221.672 519 220C506.281 223.741 494.217 236.134 491 249z"/>
<path style="fill:#431b1b; stroke:none;" d="M540.667 220.333C540.222 220.778 541.278 220.722 541.333 220.667C541.778 220.222 540.722 220.278 540.667 220.333z"/>
<path style="fill:#d77373; stroke:none;" d="M540 221C542.738 224.914 547.702 226.49 550.695 230.326C553.861 234.382 554.126 240.789 558 244L557 247L559 247C558.014 248.478 558 248.203 558 250C560.622 251.162 562.226 252.184 563 255C559.681 253.015 553.957 252.523 550 252L552 248C550.39 246.672 549.299 245.617 548 244L552 244C550.326 242.849 549 242.415 547 242C546.011 245.254 545.41 247.622 546 251L542 252C541.799 249.581 541.728 247.409 542 245C535.235 243.601 526.216 244.36 524 252L516 252C516.166 254.419 516.437 256.644 517 259C514.202 260.901 513.537 262.684 513 266C515.394 264.661 517.262 264.179 520 264L518 258C520.827 258.665 524.119 258.71 526 261C528.278 260.844 529.098 260.844 531 262C531.911 260.623 532.404 259.56 533 258L534 262C537.322 261.887 539.484 261.708 542 264C544.285 263.675 546.634 262.798 548.925 262.704C553.31 262.524 555.891 265.312 559 261C560.022 262.534 559.805 262.402 561 263C560.97 260.939 560.923 260.908 560 259C564.882 258.125 570.006 257.746 574 261C578.934 260.402 582.252 263.779 587 263C587 264.797 587.014 264.522 588 266C589.314 265.232 589.232 265.314 590 264C592.292 265.549 593.666 266.604 595 269C596.3 268.35 596 268.853 596 267C596.986 268.479 597 268.203 597 270C597.683 268.494 597.826 267.686 598 266C598.986 267.479 599 267.203 599 269C600.956 267.664 602.81 265.85 605 267L607 264C608.742 264.285 610.214 264.163 612 264L611 262L618 262L618 266L622 266C622.162 271.474 623.996 276.424 624 282C626.528 281.948 628.582 281.722 631 281C631.211 283.739 631.302 284.422 634 285L631 292C638.542 292.746 640.474 280.94 640.91 275C642.109 258.659 637.32 241.605 623 231.916C609.599 222.849 592.279 229.111 581.004 238.465C577.249 241.579 571.509 251.753 566.018 251.079C560.433 250.393 558.863 240.189 557.111 236C554.065 228.717 547.517 223.228 540 221z"/>
<path style="fill:#fff1de; stroke:none;" d="M502 290C505.244 282.268 502.64 271.429 504.314 263C507.845 245.222 521.651 235.703 536 227L536 225C532.055 223.891 528.145 222.807 524 223.097C519.282 223.428 514.845 225.565 511.001 228.221C490.705 242.24 494.301 270.014 502 290z"/>
<path style="fill:#e7aba0; stroke:none;" d="M530.667 223.333C530.222 223.778 531.278 223.722 531.333 223.667C531.778 223.222 530.722 223.278 530.667 223.333z"/>
<path style="fill:#d97273; stroke:none;" d="M536 223C534.378 228.482 529.49 229.891 525 232.799C520.342 235.817 516.064 239.519 512.764 244C502.233 258.302 504 275.279 504 292C496.818 280.67 493.109 264.102 496.478 251C498.06 244.848 503.02 239.281 503 233C497.686 236.914 493.831 242.37 493 249L490 249C488.53 260.633 487.99 272.703 491.9 283.961C493.301 287.995 496.19 291.3 498.269 295.001C501.032 299.919 503.037 305.211 506 310C508.303 306.96 507.997 303.732 508 300L512 302C512.37 298.834 512.839 295.966 514 293C512.778 291.028 511.851 289.366 510 288L510 286C512.704 283.581 511.78 279.463 512.015 276C512.4 270.344 512.943 263.099 517 259L516 252L524 252C527.432 244.879 534.875 244.112 542 245C541.437 247.57 541.564 249.393 542 252L546 251C545.798 247.834 546.427 245.101 547 242L552 243L548 244C549.155 246.133 549.882 246.782 552 248L550 252C554.196 252.935 559.042 253.454 563 255C562.517 251.8 561.091 250.852 558 250L559 247L557 247C557.986 245.521 558 245.797 558 244C555.236 240.539 554.585 235.972 552.425 232.093C548.935 225.826 542.885 223.077 536 223z"/>
<path style="fill:#100000; stroke:none;" d="M548 224C551.185 228.526 555.353 232.231 558.239 237C561.599 242.551 561.462 249.418 569 250C559.399 243.435 559.725 229.471 548 224z"/>
<path style="fill:#3f1718; stroke:none;" d="M597.667 227.333C597.222 227.778 598.278 227.722 598.333 227.667C598.778 227.222 597.722 227.278 597.667 227.333z"/>
<path style="fill:#875554; stroke:none;" d="M599.667 227.333C599.222 227.778 600.278 227.722 600.333 227.667C600.778 227.222 599.722 227.278 599.667 227.333z"/>
<path style="fill:#623c3b; stroke:none;" d="M612.667 227.333C612.222 227.778 613.278 227.722 613.333 227.667C613.778 227.222 612.722 227.278 612.667 227.333z"/>
<path style="fill:#9e6262; stroke:none;" d="M595.667 228.333C595.222 228.778 596.278 228.722 596.333 228.667C596.778 228.222 595.722 228.278 595.667 228.333z"/>
<path style="fill:#cc7c7d; stroke:none;" d="M558 236C557.132 241.179 561.834 254.27 568.996 250.953C572.813 249.185 575.241 244.959 578.089 242.039C583.295 236.705 589.806 232.076 597 230C589.307 227.338 579.006 237.806 574.424 243.004C572.366 245.339 568.91 250.733 565.133 249.079C561.137 247.328 560.001 239.554 558 236z"/>
<path style="fill:#eabcad; stroke:none;" d="M496.333 250.667C496.278 250.722 496.222 251.778 496.667 251.333C496.722 251.278 496.778 250.222 496.333 250.667z"/>
<path style="fill:#815151; stroke:none;" d="M489.333 251.667C489.278 251.722 489.222 252.778 489.667 252.333C489.722 252.278 489.778 251.222 489.333 251.667z"/>
<path style="fill:#353130; stroke:none;" d="M480.333 252.667C480.278 252.722 480.222 253.778 480.667 253.333C480.722 253.278 480.778 252.222 480.333 252.667z"/>
<path style="fill:#dda398; stroke:none;" d="M507.333 253.667C507.278 253.722 507.222 254.778 507.667 254.333C507.722 254.278 507.778 253.222 507.333 253.667z"/>
<path style="fill:#a7a3a2; stroke:none;" d="M479.333 255.667C479.278 255.722 479.222 256.778 479.667 256.333C479.722 256.278 479.778 255.222 479.333 255.667z"/>
<path style="fill:#6b6766; stroke:none;" d="M479.333 257.667C479.278 257.722 479.222 258.778 479.667 258.333C479.722 258.278 479.778 257.222 479.333 257.667z"/>
<path style="fill:#875755; stroke:none;" d="M640.333 257.667C640.278 257.722 640.222 258.778 640.667 258.333C640.722 258.278 640.778 257.222 640.333 257.667z"/>
<path style="fill:#eab8af; stroke:none;" d="M505.333 258.667C505.278 258.722 505.222 259.778 505.667 259.333C505.722 259.278 505.778 258.222 505.333 258.667z"/>
<path style="fill:#d87474; stroke:none;" d="M518 258C518.315 260.33 518.902 261.918 520 264L514 264C513.105 270.088 513.252 281.052 510 286L510 288L514 293C512.042 295.771 512.132 298.639 512 302L508 300C507.99 303.701 506.793 308.381 507.929 311.911C509.315 316.215 513.263 320.494 516.001 324L530 342C530.409 339.726 529.788 338.219 529 336L536 336C534.921 343.32 539.211 346.377 546 347C544.466 348.023 544.598 347.805 544 349C546.179 349.726 545.78 349.439 545 351C550.123 352.518 559.714 354.069 563 349C563.986 350.479 564 350.203 564 352L569 349C569.225 351.996 569.552 353.25 572 355C576.107 348.132 586.162 340.063 594 338C594.597 330.191 602.294 329.946 608.001 326.186C615.612 321.171 620.337 314.79 622 306C617.493 307.579 615.996 305.942 612 304C612.891 307.74 612.907 309.385 610 312L610 308C604.42 307.996 598.519 307.536 594 304C593.317 305.506 593.174 306.315 593 308L598 308L598 310L594 310C594.661 311.396 594.965 311.814 596 313L594 313C594.65 314.3 594.147 314 596 314C593.518 317.427 590.622 320.01 589 324C588.356 321.894 588.094 320.205 588 318L586 318L586 322C584.814 320.814 584.416 320.472 583 320C581.778 324.889 581.363 328.598 576 330L576 326C569.588 324.571 566.412 324.571 560 326L560 322C551.301 322 544.493 322.463 537.657 316.364C536.196 315.061 533.368 313.431 533.427 311.197C533.472 309.519 535.283 307.486 536 306C532.919 305.313 530.183 304.211 527 304L528 300C525.997 301.734 526.077 303.355 526 306C524.957 303.904 524.397 302.301 524 300L522 300L522 304L520 304C520.527 295.88 523.972 288.227 524 280L520 280L520 272L526 272L524 264L530 264C528.87 262.119 527.446 260.666 526 259L518 258z"/>
<path style="fill:#d77574; stroke:none;" d="M533 258L532 262C530.406 260.704 529.982 260.465 528 260L530 264L524 264L526 272L520 272L520 280L524 280C523.91 288.169 520.24 295.874 520 304L522 304L522 300L524 300L525 306C526.005 303.85 526.53 301.882 528 300L527 304L536 306C534.992 307.427 532.936 309.36 532.823 311.197C532.683 313.482 535.486 315.056 536.965 316.364C544.048 322.628 551.007 322 560 322L560 326C562.674 325.646 565.31 324.258 568 324.258C570.69 324.258 573.326 325.646 576 326L576 330C581.791 329.149 582.034 325.094 583 320C584.186 321.186 584.584 321.528 586 322L586 318L588 318L588 324C590.79 321.243 596.308 316.887 594 313L596 313L594 310L598 310L598 308L593 308L593 304C598.039 307.616 603.973 307.999 610 308L610 312C613.753 309.904 613.491 307.795 612 304C615.791 306.681 617.552 308.277 622 306C621.428 308.377 621.109 310.558 621 313C626.89 307.402 632.532 299.798 635 292L631 292C632.171 289.688 633.175 287.454 634 285C631.965 283.774 631.674 283.297 631 281C628.623 281.572 626.442 281.891 624 282C623.999 276.376 622.356 271.479 622 266L618 266L618 262L611 262L612 264C608.875 264.107 606.547 263.573 606 267C604.977 265.466 605.196 265.598 604 265C602.184 266.297 601.154 267.135 600 269C599.014 267.522 599 267.797 599 266C598.317 267.506 598.174 268.315 598 270C597.014 268.521 597 268.797 597 267C595.7 267.65 596 267.147 596 269C594.509 266.842 593.131 265.537 591 264L588 266L587 263C582.125 263.019 579.043 259.927 574 261C570.877 257.139 564.395 257.745 560 259C560.571 260.513 560.864 261.427 561 263C559.977 261.466 560.195 261.598 559 261C554.762 264.954 547.743 262.19 542 264C539.855 261.276 537.292 261.735 534 262C533.826 260.315 533.683 259.506 533 258z"/>
<path style="fill:#f4beb4; stroke:none;" d="M504.333 261.667C504.278 261.722 504.222 262.778 504.667 262.333C504.722 262.277 504.778 261.222 504.333 261.667z"/>
<path style="fill:#6a3736; stroke:none;" d="M641.333 261.667C641.278 261.722 641.222 262.778 641.667 262.333C641.722 262.278 641.778 261.222 641.333 261.667z"/>
<path style="fill:#7c7877; stroke:none;" d="M650.333 262.667C650.278 262.722 650.222 263.778 650.667 263.333C650.722 263.278 650.778 262.222 650.333 262.667z"/>
<path style="fill:#8e8a87; stroke:none;" d="M479.333 268.667C479.278 268.722 479.222 269.778 479.667 269.333C479.722 269.278 479.778 268.222 479.333 268.667z"/>
<path style="fill:#cac4c4; stroke:none;" d="M479.333 270.667C479.278 270.722 479.222 271.778 479.667 271.333C479.722 271.278 479.778 270.222 479.333 270.667z"/>
<path style="fill:#532623; stroke:none;" d="M641.333 274.667C641.278 274.722 641.222 275.778 641.667 275.333C641.722 275.278 641.778 274.222 641.333 274.667z"/>
<path style="fill:#d0cccd; stroke:none;" d="M650.333 275.667C650.278 275.722 650.222 276.778 650.667 276.333C650.722 276.278 650.778 275.222 650.333 275.667z"/>
<path style="fill:#6d4140; stroke:none;" d="M640.333 278.667C640.278 278.722 640.222 279.778 640.667 279.333C640.722 279.278 640.778 278.222 640.333 278.667z"/>
<path style="fill:#612f30; stroke:none;" d="M490.333 279.667C490.278 279.722 490.222 280.778 490.667 280.333C490.722 280.278 490.778 279.222 490.333 279.667z"/>
<path style="fill:#dcaaa3; stroke:none;" d="M498.333 279.667C498.278 279.722 498.222 280.778 498.667 280.333C498.722 280.277 498.778 279.222 498.333 279.667z"/>
<path style="fill:#391213; stroke:none;" d="M491.333 283.667C491.278 283.722 491.222 284.778 491.667 284.333C491.722 284.278 491.778 283.222 491.333 283.667z"/>
<path style="fill:#cf7b7b; stroke:none;" d="M494 288C496.362 301.249 506.734 314.475 514.627 325C518.409 330.044 521.84 335.288 527 339C522.139 328.076 512.481 319.083 506.018 308.996C501.659 302.195 499.608 293.989 494 288z"/>
<path style="fill:#110000; stroke:none;" d="M629 303C619.113 316.751 606.942 328.399 594 339.246C586.539 345.499 576.915 351.288 571 359C578.11 355.994 584.111 350.152 590 345.247C599.578 337.268 609.451 329.264 617.83 320C621.562 315.874 629.817 308.956 629 303z"/>
<path style="fill:#d97575; stroke:none;" d="M594 338C586.676 339.097 574.534 347.992 572 355C570.035 352.948 569.426 351.806 569 349C567.009 349.849 566.222 350.267 565 352C564.014 350.522 564 350.797 564 349C558.292 353.122 551.582 352.43 545 351C545.338 349.328 545.537 349.69 544 349L546 348C540.554 344.361 535.789 343.861 536 336L529 336C531.751 345.953 540.141 353.234 547 360.576C549.542 363.297 552.782 367.89 557 367.538C562.528 367.077 566.159 360.809 570.259 357.841C582.64 348.88 598.059 339.657 607 327C600.683 328.889 594.241 330.732 594 338z"/>
<path style="fill:#625e5f; stroke:none;" d="M474.667 338.333C474.222 338.778 475.278 338.722 475.333 338.667C475.778 338.222 474.722 338.278 474.667 338.333z"/>
<path style="fill:#010101; stroke:none;" d="M520 398C521.88 391.625 519.933 385.189 517.971 379C513.084 363.58 501.971 341.824 484 339.21C480.107 338.644 474.591 338.363 471.004 340.179C465.647 342.891 460.476 350.39 465.318 355.775C469.17 360.06 476.757 361.734 482 363.681C489.272 366.382 496.181 369.978 502 375.174C505.873 378.631 509.389 382.416 511.877 387C514.234 391.344 515.1 396.083 520 398z"/>
<path style="fill:#d07c7c; stroke:none;" d="M527 339C531.15 348.059 540.317 355.782 547.089 362.999C550.367 366.492 553.05 369.415 558 369C545.828 361.225 539.282 346.034 527 339z"/>
<path style="fill:#4d1d1d; stroke:none;" d="M475.667 344.333C475.222 344.778 476.278 344.722 476.333 344.667C476.778 344.222 475.722 344.278 475.667 344.333z"/>
<path style="fill:#4d1d1d; stroke:none;" d="M480.667 344.333C480.222 344.778 481.278 344.722 481.333 344.667C481.778 344.222 480.722 344.278 480.667 344.333z"/>
<path style="fill:#da7875; stroke:none;" d="M470 352C480.056 356.125 492.112 363.435 503 364C500.828 355.649 492.261 347.985 484 345.637C477.739 343.858 471.857 345.461 470 352z"/>
<path style="fill:#452928; stroke:none;" d="M469.333 350.667C469.278 350.722 469.222 351.778 469.667 351.333C469.722 351.278 469.778 350.222 469.333 350.667z"/>
<path style="fill:#120000; stroke:none;" d="M480 357C483.498 360.055 487.897 360.927 492.001 362.963C496.446 365.168 500.357 368.24 505 370C499.24 363.031 488.868 358.328 480 357z"/>
<path style="fill:#c28082; stroke:none;" d="M568 360C569.457 358.896 569.897 358.457 571 357C568.876 357.899 568.899 357.876 568 360z"/>
<path style="fill:#c28081; stroke:none;" d="M499 364C501.358 366.574 503.952 368.298 507 370C506.223 367.511 505.183 365.328 504 363L499 364z"/>
<path style="fill:#523233; stroke:none;" d="M554.667 370.333C554.222 370.778 555.278 370.722 555.333 370.667C555.778 370.222 554.722 370.278 554.667 370.333z"/>
<path style="fill:#bcbbb9; stroke:none;" d="M612.667 370.333C612.222 370.778 613.278 370.722 613.333 370.667C613.778 370.222 612.722 370.278 612.667 370.333z"/>
<path style="fill:#888785; stroke:none;" d="M614 370C616.052 370.874 617.747 370.953 620 371C617.948 370.126 616.253 370.047 614 370z"/>
<path style="fill:#c7c3c2; stroke:none;" d="M620.667 370.333C620.222 370.778 621.278 370.722 621.333 370.667C621.778 370.222 620.722 370.278 620.667 370.333z"/>
<path style="fill:#2b2120; stroke:none;" d="M507.667 371.333C507.222 371.778 508.278 371.722 508.333 371.667C508.778 371.222 507.722 371.278 507.667 371.333z"/>
<path style="fill:#010000; stroke:none;" d="M582 395C589.492 394.824 595.904 390.827 603 388.721C609.147 386.896 615.563 385.621 622 386.09C625.452 386.342 630.462 388.769 633.678 386.782C640.718 382.431 628.853 373.449 625 372.109C612.669 367.819 598.881 374.847 590 383.09C586.226 386.594 582.803 389.795 582 395z"/>
<path style="fill:#3f1312; stroke:none;" d="M615 376C616.506 376.683 617.315 376.826 619 377C617.494 376.317 616.685 376.174 615 376z"/>
<path style="fill:#784f4b; stroke:none;" d="M611.667 377.333C611.222 377.778 612.278 377.722 612.333 377.667C612.778 377.222 611.722 377.278 611.667 377.333z"/>
<path style="fill:#c88483; stroke:none;" d="M605 380C610.584 382.278 619.82 380 626 380C619.694 374.986 611.866 377.441 605 380z"/>
<path style="fill:#794d4a; stroke:none;" d="M611.667 380.333C611.222 380.778 612.278 380.722 612.333 380.667C612.778 380.222 611.722 380.278 611.667 380.333z"/>
<path style="fill:#3f1918; stroke:none;" d="M613 380C615.613 381.098 618.165 380.993 621 381C618.387 379.902 615.836 380.007 613 380z"/>
<path style="fill:#624341; stroke:none;" d="M621 380C622.769 380.779 624.036 380.912 626 381C624.231 380.221 622.964 380.088 621 380z"/>
<path style="fill:#4c3e3b; stroke:none;" d="M602 381L601 383L603 383C603 381.147 603.3 381.65 602 381z"/>
<path style="fill:#a27b76; stroke:none;" d="M603.667 381.333C603.222 381.778 604.278 381.722 604.333 381.667C604.778 381.222 603.722 381.278 603.667 381.333z"/>
<path style="fill:#6c3f3a; stroke:none;" d="M605.667 381.333C605.222 381.778 606.278 381.722 606.333 381.667C606.778 381.222 605.722 381.278 605.667 381.333z"/>
<path style="fill:#411512; stroke:none;" d="M607.667 381.333C607.222 381.778 608.278 381.722 608.333 381.667C608.778 381.222 607.722 381.278 607.667 381.333z"/>
<path style="fill:#c8c4c3; stroke:none;" d="M636 383L636 386C636.696 384.446 636.696 384.554 636 383z"/>
<path style="fill:#2d2928; stroke:none;" d="M612 386C613.769 386.779 615.036 386.912 617 387C615.231 386.221 613.964 386.088 612 386z"/>
<path style="fill:#423e3d; stroke:none;" d="M617 386C618.506 386.683 619.315 386.826 621 387C619.494 386.317 618.685 386.174 617 386z"/>
<path style="fill:#181413; stroke:none;" d="M621 386C622.769 386.779 624.036 386.912 626 387C624.231 386.221 622.964 386.088 621 386z"/>
<path style="fill:#504c4b; stroke:none;" d="M520.333 387.667C520.278 387.722 520.222 388.778 520.667 388.333C520.722 388.278 520.778 387.222 520.333 387.667z"/>
<path style="fill:#54504f; stroke:none;" d="M607.667 387.333C607.222 387.778 608.278 387.722 608.333 387.667C608.778 387.222 607.722 387.278 607.667 387.333z"/>
<path style="fill:#e9e5e4; stroke:none;" d="M622 387C623.506 387.683 624.315 387.826 626 388C624.494 387.317 623.685 387.174 622 387z"/>
<path style="fill:#898788; stroke:none;" d="M626.667 387.333C626.222 387.778 627.278 387.722 627.333 387.667C627.778 387.222 626.722 387.278 626.667 387.333z"/>
<path style="fill:#383435; stroke:none;" d="M628.667 387.333C628.222 387.778 629.278 387.722 629.333 387.667C629.778 387.222 628.722 387.278 628.667 387.333z"/>
<path style="fill:#bfbbba; stroke:none;" d="M604.667 388.333C604.222 388.778 605.278 388.722 605.333 388.667C605.778 388.222 604.722 388.278 604.667 388.333z"/>
<path style="fill:#373332; stroke:none;" d="M521 392L521 396C521.71 394.24 521.71 393.76 521 392z"/>
<path style="fill:#7f7a77; stroke:none;" d="M581.333 392.667C581.278 392.722 581.222 393.778 581.667 393.333C581.722 393.278 581.778 392.222 581.333 392.667z"/>
<path style="fill:#282423; stroke:none;" d="M583 395C584.248 395.685 584.549 395.749 586 396C584.752 395.315 584.452 395.251 583 395z"/>
<path style="fill:#e5dfdf; stroke:none;" d="M478 399C479.769 399.779 481.036 399.912 483 400C481.231 399.221 479.964 399.088 478 399z"/>
<path style="fill:#726e6f; stroke:none;" d="M473 400C474.248 400.685 474.548 400.749 476 401C474.752 400.315 474.452 400.251 473 400z"/>
<path style="fill:#1f1d1e; stroke:none;" d="M476 400C478.89 401.213 481.874 400.998 485 401C482.11 399.787 479.126 400.002 476 400z"/>
<path style="fill:#4c4a4b; stroke:none;" d="M485.667 400.333C485.222 400.778 486.278 400.722 486.333 400.667C486.778 400.222 485.722 400.278 485.667 400.333z"/>
<path style="fill:#817f80; stroke:none;" d="M487 400C488.248 400.685 488.548 400.749 490 401C488.752 400.315 488.452 400.251 487 400z"/>
<path style="fill:#010101; stroke:none;" d="M469 402L469 405C478.899 407.357 490.061 404.978 499.714 408.893C504.071 410.661 506.128 415.352 508.735 418.911C514.024 426.131 520.057 432.11 524.573 440C527.326 444.81 529.592 449.839 531.599 455C532.52 457.37 533.911 460.104 532.292 462.482C529.328 466.836 522.252 470.092 518 473.14C507.549 480.633 497.253 488.367 487 496.13C482.066 499.865 475.219 503.68 472 509C477.38 508.575 478.899 504.721 483 501.833C485.2 500.284 487.71 499.858 490 498.5C491.996 497.316 491.588 496.311 494 496C493.014 497.479 493 497.203 493 499C494.416 498.528 494.814 498.186 496 497C495.528 495.584 495.186 495.186 494 494C495.537 493.31 495.338 493.672 495 492L499 492L498 495C506.457 495.817 517.454 484.263 524 479.374C541.487 466.316 561.796 449.663 583 443.373C586.733 442.266 590.194 442.94 594 442.982C597.636 443.021 601.404 441.809 605 442.264C611.963 443.145 616.602 450.372 619.677 455.996C622.097 460.423 625.895 465.102 622.836 470C620.594 473.591 617.06 476.041 614.623 479.424C612.93 481.773 612.59 484.67 610.763 487C605.323 493.937 597.661 499.562 591 505.271C580.708 514.093 570.419 522.914 560 531.586C551.184 538.924 539.974 545.882 533 555C545.576 549.675 554.803 537.037 566 529.394C570.261 526.486 574.723 528.372 579 526.266C584.11 523.75 588.651 518.716 593 515.08C603.735 506.106 617.565 496.062 623.482 483C634.966 457.652 612.895 431.247 586 434.188C569.558 435.987 554.848 449.119 541 457C532.708 426.682 504.335 391.555 469 402z"/>
<path style="fill:#010000; stroke:none;" d="M465 787C453.653 771.596 429.507 776.323 415.093 765.351C404.281 757.121 403.639 738.324 397.12 727C386.841 709.145 366.377 699.312 359.09 679C351.859 658.842 371.446 635.83 382 620C400.488 592.271 420.654 563.036 445.004 540.089C461.862 524.203 481.875 511.384 500 497C499.358 495.189 499.051 493.908 499 492L495 492C495.208 493.661 495.495 493.54 494 494C494.545 495.635 494.365 495.455 496 496L493 499L494 496C491.616 496.289 491.613 495.91 492 498C483.736 499.726 479.504 506.433 472 509C470.451 489.396 463.512 470.076 459.113 451C457.281 443.06 453.98 434.267 454.474 426C455.394 410.58 477.135 406.442 489 409.236C496.11 410.91 501.534 414.942 508 418C502.095 402.758 482.067 407.426 469 405C470.277 403.085 470.277 403.915 469 402C460.244 404.396 450.458 409.688 447.649 419C445.773 425.217 447.23 432.732 448.131 439C450.556 455.867 456.243 472.393 460.011 489C461.394 495.097 466.503 506.803 463.802 512.829C462.148 516.523 457.108 519.379 454 521.765C446.934 527.189 440.219 532.538 434.039 539C407.511 566.742 382.788 599.673 363.72 633C356.534 645.559 346.719 659.748 349.465 675C352.417 691.403 364.303 704.269 375.576 715.714C380.972 721.194 386.977 726.127 390.676 733C396.58 743.969 398.037 757.948 405.637 767.957C408.892 772.243 414.072 774.508 419 776.305C427.214 779.299 435.663 781.435 444 784.025C451.064 786.221 457.561 789.032 465 787z"/>
<path style="fill:#44281a; stroke:none;" d="M475.667 408.333C475.222 408.778 476.278 408.722 476.333 408.667C476.778 408.222 475.722 408.278 475.667 408.333z"/>
<path style="fill:#7e5e4f; stroke:none;" d="M477 408C479.052 408.874 480.747 408.953 483 409C480.948 408.126 479.253 408.047 477 408z"/>
<path style="fill:#5d4032; stroke:none;" d="M483 408C484.248 408.685 484.548 408.749 486 409C484.752 408.315 484.452 408.251 483 408z"/>
<path style="fill:#71554a; stroke:none;" d="M471 409C472.248 409.685 472.548 409.749 474 410C472.752 409.315 472.452 409.251 471 409z"/>
<path style="fill:#f6b99c; stroke:none;" d="M473 500C481.835 502.379 487.322 496.15 494 490.989C507.011 480.934 520.369 471.198 534 462C526.852 440.87 514.624 415.87 491 410.131C484.909 408.651 478.12 408.393 472.001 409.9C469.715 410.463 466.742 411.099 465.603 413.419C463.257 418.2 464.847 427.89 465.579 433C467.366 445.472 471.351 457.1 475.333 469C476.749 473.232 479.335 477.624 480.103 482C481.219 488.349 474.189 493.854 473 500z"/>
<path style="fill:#8c6e64; stroke:none;" d="M488.667 409.333C488.222 409.778 489.278 409.722 489.333 409.667C489.778 409.222 488.722 409.278 488.667 409.333z"/>
<path style="fill:#876758; stroke:none;" d="M492.667 410.333C492.222 410.778 493.278 410.722 493.333 410.667C493.778 410.222 492.722 410.278 492.667 410.333z"/>
<path style="fill:#fff1dc; stroke:none;" d="M471 499C474.971 495.718 480.345 489.437 480.59 484C480.857 478.078 476.202 470.604 474.333 465C469.178 449.537 461.076 429.481 465 413C454.558 417.08 454.804 426.472 456.275 436C459.519 457.016 465.673 478.412 471 499z"/>
<path style="fill:#f9d1b7; stroke:none;" d="M464 414L464 425C465.431 421.59 465.431 417.41 464 414z"/>
<path style="fill:#f8b99a; stroke:none;" d="M469 418C466.441 426.658 469.53 435.531 471.559 444C473.477 452.001 474.192 460.216 476.915 468C478.859 473.558 479.699 480.106 486 482C486.46 475.285 491.793 471.008 492 464C488.841 463.086 487.046 462.651 484 464C483.982 458.798 483.251 453.188 480 449C482.287 445.735 481.446 442.692 482.509 439.015C483.693 434.921 485.865 432.454 486 428L482 428L482 424L476 424L476 420C473.262 419.821 471.394 419.339 469 418z"/>
<path style="fill:#afa6a9; stroke:none;" d="M446.333 420.667C446.278 420.722 446.222 421.778 446.667 421.333C446.722 421.278 446.778 420.222 446.333 420.667z"/>
<path style="fill:#7c7678; stroke:none;" d="M446.333 422.667C446.278 422.722 446.222 423.778 446.667 423.333C446.722 423.278 446.778 422.222 446.333 422.667z"/>
<path style="fill:#cfc7bc; stroke:none;" d="M455.333 422.667C455.278 422.722 455.222 423.778 455.667 423.333C455.722 423.278 455.778 422.222 455.333 422.667z"/>
<path style="fill:#615b5d; stroke:none;" d="M446 424L446 429C446.83 426.969 446.83 426.031 446 424z"/>
<path style="fill:#241d15; stroke:none;" d="M454 424L454 429C454.83 426.969 454.83 426.031 454 424z"/>
<path style="fill:#9b9597; stroke:none;" d="M446.333 429.667C446.278 429.722 446.222 430.778 446.667 430.333C446.722 430.278 446.778 429.222 446.333 429.667z"/>
<path style="fill:#b3aaa1; stroke:none;" d="M455 430L455 433C455.696 431.446 455.696 431.554 455 430z"/>
<path style="fill:#c6c0c2; stroke:none;" d="M446.333 431.667C446.278 431.722 446.222 432.778 446.667 432.333C446.722 432.278 446.778 431.222 446.333 431.667z"/>
<path style="fill:#524e45; stroke:none;" d="M455.333 433.667C455.278 433.722 455.222 434.778 455.667 434.333C455.722 434.278 455.778 433.222 455.333 433.667z"/>
<path style="fill:#d8d4d1; stroke:none;" d="M586 433C587.769 433.779 589.036 433.912 591 434C589.231 433.221 587.964 433.088 586 433z"/>
<path style="fill:#413d3c; stroke:none;" d="M447.333 434.667C447.278 434.722 447.222 435.778 447.667 435.333C447.722 435.278 447.778 434.222 447.333 434.667z"/>
<path style="fill:#6c6a6b; stroke:none;" d="M592 434C593.248 434.685 593.549 434.749 595 435C593.752 434.315 593.452 434.251 592 434z"/>
<path style="fill:#7c7877; stroke:none;" d="M447 436L447 439C447.696 437.446 447.696 437.554 447 436z"/>
<path style="fill:#a59e94; stroke:none;" d="M456.333 437.667C456.278 437.722 456.222 438.778 456.667 438.333C456.722 438.278 456.778 437.222 456.333 437.667z"/>
<path style="fill:#5c5855; stroke:none;" d="M607.667 438.333C607.222 438.778 608.278 438.722 608.333 438.667C608.778 438.222 607.722 438.278 607.667 438.333z"/>
<path style="fill:#242017; stroke:none;" d="M456.333 440.667C456.278 440.722 456.222 441.778 456.667 441.333C456.722 441.278 456.778 440.222 456.333 440.667z"/>
<path style="fill:#9f9b9a; stroke:none;" d="M448 442L448 445C448.696 443.446 448.696 443.554 448 442z"/>
<path style="fill:#504d48; stroke:none;" d="M585 442C586.735 443.05 586.931 443.046 589 443C587.494 442.317 586.685 442.174 585 442z"/>
<path style="fill:#935957; stroke:none;" d="M600.667 442.333C600.222 442.778 601.278 442.722 601.333 442.667C601.778 442.222 600.722 442.278 600.667 442.333z"/>
<path style="fill:#ba7879; stroke:none;" d="M602 442C603.506 442.683 604.315 442.826 606 443C604.494 442.317 603.685 442.174 602 442z"/>
<path style="fill:#fff0dd; stroke:none;" d="M457 549C456.782 550.687 456.776 551.316 457 553C458.755 548.818 457.198 544.031 459.742 540.015C465.688 530.629 479.176 523.612 488 517.116C512.435 499.127 538.011 482.963 562.96 465.757C571.564 459.823 577.084 450.09 586 444C582.529 443.037 579.211 444.84 576 446.309C568.705 449.646 561.77 453.765 555 458.053C527.213 475.652 500.871 495.93 475 516.21C466.973 522.502 462.182 528.94 457.493 538C455.715 541.436 453.722 546.121 457 549z"/>
<path style="fill:#0a0000; stroke:none;" d="M614 485C613.696 475.501 626.444 472.799 624 462C620.816 469.299 618.409 473.876 612 479.246C600.083 489.232 584.445 500.03 571.108 485.957C568.768 483.488 566.765 480.47 566.423 477C566.01 472.81 568.337 468.452 570.468 465C576.275 455.595 585.901 448.227 596 444C588.558 440.884 581.374 446.736 576.17 451.59C566.286 460.81 556.164 476.552 567.479 488.699C569.612 490.988 572.253 492.741 575 494.204C577.883 495.74 580.721 496.774 584 496.957C591.046 497.35 597.032 495.169 603 491.536C606.651 489.314 609.81 486.015 614 485z"/>
<path style="fill:#865656; stroke:none;" d="M596.667 443.333C596.222 443.778 597.278 443.722 597.333 443.667C597.778 443.222 596.722 443.278 596.667 443.333z"/>
<path style="fill:#d57f80; stroke:none;" d="M596 444C598.698 444.969 601.161 444.353 604 444L604 447L600 447C603.948 449.089 607.039 446.57 609 443C604.561 443 600.338 442.967 596 444z"/>
<path style="fill:#d57372; stroke:none;" d="M595 444C587.882 451.682 577.392 454.629 573 465C586.121 464.283 592.153 450.022 604 447L604 444C600.896 444.219 598.083 444.491 595 444z"/>
<path style="fill:#bca89f; stroke:none;" d="M609.667 444.333C609.222 444.778 610.278 444.722 610.333 444.667C610.778 444.222 609.722 444.278 609.667 444.333z"/>
<path style="fill:#c87e7d; stroke:none;" d="M593 445C582.471 451.211 570.32 458.995 568 472L577 466C575.494 465.317 574.685 465.174 573 465C576.561 459.136 581.379 454.651 587 450.736C589.201 449.203 593.511 447.885 593 445z"/>
<path style="fill:#fff1de; stroke:none;" d="M569 484C575.639 481.483 581.239 476.502 587 472.424C596.623 465.613 606.179 458.49 616 452C614.883 448.752 613.078 445.199 608.996 445.566C604.295 445.989 598.887 450.593 595 453.053C584.132 459.933 562.442 468.458 569 484z"/>
<path style="fill:#be736e; stroke:none;" d="M592 455C595.547 453.323 598.748 451.193 602 449C597.867 448.4 594.069 451.59 592 455z"/>
<path style="fill:#908c83; stroke:none;" d="M459.333 451.667C459.278 451.722 459.222 452.778 459.667 452.333C459.722 452.278 459.778 451.222 459.333 451.667z"/>
<path style="fill:#ca7978; stroke:none;" d="M607 459C609.401 458.08 612.336 455.662 614.895 455.537C620.892 455.244 620.989 466.157 621 470C623.647 463.693 620.419 457.819 618 452C613.306 452.934 610 455.317 607 459z"/>
<path style="fill:#d97273; stroke:none;" d="M573 483C574.963 489.831 580.63 490.801 587 491.035C598.518 491.457 614.661 481.619 619.972 471C621.886 467.174 621.308 454.388 614.895 454.881C611.042 455.178 606.94 459.572 604 461.765C600.101 464.673 595.963 467.265 592 470.092C585.78 474.529 579.683 479.279 573 483z"/>
<path style="fill:#c97875; stroke:none;" d="M587 472C592.945 472.815 603.488 463.548 607 459C599.688 461.812 593.331 467.452 587 472z"/>
<path style="fill:#e5dfdf; stroke:none;" d="M452.333 460.667C452.278 460.722 452.222 461.778 452.667 461.333C452.722 461.278 452.778 460.222 452.333 460.667z"/>
<path style="fill:#613536; stroke:none;" d="M622.333 462.667C622.278 462.722 622.222 463.777 622.667 463.333C622.722 463.278 622.778 462.222 622.333 462.667z"/>
<path style="fill:#262020; stroke:none;" d="M626.333 462.667C626.278 462.722 626.222 463.778 626.667 463.333C626.722 463.278 626.778 462.222 626.333 462.667z"/>
<path style="fill:#e1dddc; stroke:none;" d="M453.333 464.667C453.278 464.722 453.222 465.778 453.667 465.333C453.722 465.278 453.778 464.222 453.333 464.667z"/>
<path style="fill:#f6b99c; stroke:none;" d="M534 484C537.952 485.563 541.029 484.308 544 488C537.661 488.022 533.794 489.436 532 496L536 496C535.489 497.952 535.267 498.457 534 500L534 502C535.267 503.543 535.489 504.048 536 506C541.113 507.337 540.588 511.097 544 514L544 516L540 518L540 520L542 520C541.106 522.042 540.464 523.828 540 526C535.835 526.12 532.093 527.501 528 528C526.681 533.916 524.36 544.824 516.996 545.718C513.437 546.149 509.657 544.108 506 544C505.142 538.111 499.793 536.299 502 530C499.958 529.105 498.172 528.464 496 528L496 522C488.851 522.557 490 528.179 490 534L492 534L492 528L494 528C494.077 530.645 493.997 532.266 496 534L496 536C493.997 537.734 494.077 539.355 494 542L492 542L492 536L488 536L489 531C487.521 530.014 487.797 530 486 530C486.545 528.365 486.365 528.545 488 528L488 526C485.194 522.264 488.06 519.61 490 516C484.386 518.361 479.841 522.474 475 526.105C464.918 533.667 453.632 540.744 459.703 555C463.034 562.822 472.158 567.13 477 574L466 569L472 578C468.489 578.18 465.382 579.105 462 580C462.627 582.86 462.412 585.106 462 588L454 588L454 592L448 592C447.965 595.192 447.942 597.44 446 600C446 601.797 446.014 601.521 447 603C442.861 604.325 440.658 605.522 440 610C437.527 608.728 435.96 607.776 434 610L432 610C431.232 608.686 431.314 608.768 430 608C429.826 610.613 429.582 611.943 428 614C428.387 611.91 428.384 612.289 426 612L426 616L422 616C422.004 621.625 421.987 627.524 427 631L426 636L422 634L420 642L424 642C422.196 645.523 423.894 648.959 422 652L422 654C423.754 658.486 417.233 663.343 416 668C419.262 669.817 422.526 671.631 426 673L424 675C425.006 676.731 425.546 678.053 426 680C427.797 680 427.521 679.986 429 679C429.735 682.512 429.374 684.695 428 688L444 688C444 684.851 443.538 681.221 444.509 678.184C445.25 675.867 447.174 674.227 447.722 671.816C448.856 666.827 448.429 662.035 450 657C441.664 663.394 437.971 673.256 428 678C430.724 673.87 433.124 669.913 434 665C428.574 666.72 423.658 667 418 667C424.05 662.337 431.134 658.353 436.331 652.7C442.474 646.017 446.886 637.457 452.025 630C464.372 612.087 477.241 592.816 492.804 577.514C496.825 573.56 501.59 569.111 507 567.249C510.887 565.911 515.287 566.603 519 564.836C524.166 562.377 528.639 557.553 533 553.92C539.403 548.585 547.037 543.742 552 537C549.697 537.617 548.628 538.257 547 540C544.043 535.977 545.837 533.418 545 529L546 528C552.371 529.217 555.725 523.674 558.88 518.907C563.727 511.583 568.734 508.61 568 499C570.771 498.205 573.12 497.923 576 498C574.416 493.185 569.427 490.807 566.225 486.996C560.059 479.659 561.875 473.1 565 465C553.897 468.515 543.595 477.527 534 484z"/>
<path style="fill:#e7dedf; stroke:none;" d="M454.333 468.667C454.278 468.722 454.222 469.778 454.667 469.333C454.722 469.278 454.778 468.222 454.333 468.667z"/>
<path style="fill:#938f8e; stroke:none;" d="M626.333 471.667C626.278 471.722 626.222 472.778 626.667 472.333C626.722 472.278 626.778 471.222 626.333 471.667z"/>
<path style="fill:#422a20; stroke:none;" d="M562.333 472.667C562.278 472.722 562.222 473.778 562.667 473.333C562.722 473.278 562.778 472.222 562.333 472.667z"/>
<path style="fill:#c77470; stroke:none;" d="M573 483C578.4 480.953 583.466 477.58 587 473C581.722 475.03 576.599 478.642 573 483z"/>
<path style="fill:#bdb9b8; stroke:none;" d="M626.333 473.667C626.278 473.722 626.222 474.778 626.667 474.333C626.722 474.278 626.778 473.222 626.333 473.667z"/>
<path style="fill:#c4bebe; stroke:none;" d="M457.333 479.667C457.278 479.722 457.222 480.778 457.667 480.333C457.722 480.278 457.778 479.222 457.333 479.667z"/>
<path style="fill:#77726c; stroke:none;" d="M467.333 483.667C467.278 483.722 467.222 484.778 467.667 484.333C467.722 484.278 467.778 483.222 467.333 483.667z"/>
<path style="fill:#cd7c7b; stroke:none;" d="M571 483C570.014 484.479 570 484.203 570 486C576.977 490.953 583.353 494.053 592 492C584.497 488.851 577.362 492.133 573 483L571 483z"/>
<path style="fill:#f8b99a; stroke:none;" d="M488 526L488 528C486.686 528.768 486.768 528.686 486 530L489 531C488.438 532.801 488.176 534.122 488 536L492 536L492 542L494 542C494.174 539.388 494.418 538.057 496 536L496 534C494.418 531.943 494.174 530.613 494 528L492 528L492 534L490 534C490.001 528.337 489.298 523.069 496 522L496 528L502 530C498.796 536.258 504.516 538.236 506 544C509.999 544.26 513.925 546.491 517.95 545.767C524.923 544.512 527.22 533.894 528 528L540 526C540.709 523.584 541.69 521.895 540 520L540 518L544 516L544 514C541.093 510.287 541.385 506.792 536 506C535.693 503.877 535.618 503.314 534 502L534 500C535.618 498.686 535.693 498.123 536 496L532 496C534.582 490.228 537.756 488.074 544 488C541.267 482.807 534.47 484.301 530 486.853C517.382 494.057 504.325 503.537 493.104 512.759C489.668 515.583 482.994 522.302 488 526z"/>
<path style="fill:#372d2c; stroke:none;" d="M612.333 484.667C612.278 484.722 612.222 485.778 612.667 485.333C612.722 485.278 612.778 484.222 612.333 484.667z"/>
<path style="fill:#1c1914; stroke:none;" d="M467.333 485.667C467.278 485.722 467.222 486.778 467.667 486.333C467.722 486.278 467.778 485.222 467.333 485.667z"/>
<path style="fill:#806f68; stroke:none;" d="M611 485C610.014 486.479 610 486.203 610 488C611.289 486.557 611.401 486.766 611 485z"/>
<path style="fill:#f7ba9d; stroke:none;" d="M568 499C568.172 507.883 564.216 510.284 559.509 517.001C555.926 522.115 553.123 528.325 546 528L545 529C545.152 533.25 543.916 535.976 546 540C560.339 532.71 571.792 521.828 584 511.427C591.788 504.792 601.068 498.398 607 490C600.787 491.966 595.547 496.6 589 497.667C581.452 498.898 575.587 495.582 568 499z"/>
<path style="fill:#92605f; stroke:none;" d="M581.667 492.333C581.222 492.778 582.278 492.722 582.333 492.667C582.778 492.222 581.722 492.278 581.667 492.333z"/>
<path style="fill:#310708; stroke:none;" d="M584 493C585.506 493.683 586.315 493.826 588 494C586.494 493.317 585.685 493.174 584 493z"/>
<path style="fill:#423d3a; stroke:none;" d="M461.333 494.667C461.278 494.722 461.222 495.778 461.667 495.333C461.722 495.278 461.778 494.222 461.333 494.667z"/>
<path style="fill:#dfdad7; stroke:none;" d="M461.333 497.667C461.278 497.722 461.222 498.778 461.667 498.333C461.722 498.278 461.778 497.222 461.333 497.667z"/>
<path style="fill:#a38378; stroke:none;" d="M582.667 497.333C582.222 497.778 583.278 497.722 583.333 497.667C583.778 497.222 582.722 497.278 582.667 497.333z"/>
<path style="fill:#785d52; stroke:none;" d="M584 497C585.769 497.779 587.036 497.912 589 498C587.231 497.221 585.964 497.088 584 497z"/>
<path style="fill:#ceaa9c; stroke:none;" d="M589.667 497.333C589.222 497.778 590.278 497.722 590.333 497.667C590.778 497.222 589.722 497.278 589.667 497.333z"/>
<path style="fill:#f7c8ae; stroke:none;" d="M472 498C471.327 501.102 471.758 503.84 472 507C474.909 505.312 476.95 503.663 479 501C476.244 500.463 474.339 499.552 472 498z"/>
<path style="fill:#4b4746; stroke:none;" d="M462.333 499.667C462.278 499.722 462.222 500.778 462.667 500.333C462.722 500.278 462.778 499.222 462.333 499.667z"/>
<path style="fill:#745c50; stroke:none;" d="M471 502L471 505C471.696 503.446 471.696 503.554 471 502z"/>
<path style="fill:#34302f; stroke:none;" d="M463 504L463 507C463.696 505.446 463.696 505.554 463 504z"/>
<path style="fill:#aaa6a5; stroke:none;" d="M463.333 507.667C463.278 507.722 463.222 508.778 463.667 508.333C463.722 508.278 463.778 507.222 463.333 507.667z"/>
<path style="fill:#282627; stroke:none;" d="M464.333 510.667C464.278 510.722 464.222 511.778 464.667 511.333C464.722 511.278 464.778 510.222 464.333 510.667z"/>
<path style="fill:#535353; stroke:none;" d="M464.333 512.667C464.278 512.722 464.222 513.778 464.667 513.333C464.722 513.278 464.778 512.222 464.333 512.667z"/>
<path style="fill:#fff1de; stroke:none;" d="M363 687C366.93 679.52 367.955 672.271 369 664C370.762 666.462 371.602 669.173 374 671C374 667.145 373.29 662.772 374.089 659C375.145 654.008 377.537 650.287 377 645C385.168 642.299 388.359 631.863 392.681 625C403.621 607.632 414.733 590.588 426.849 574C431.238 567.991 437.405 556.888 445 554.697C447.863 553.871 451.214 555.363 454 556C452.457 552.021 450.727 548.22 450 544C452.174 546.788 453.889 549.301 457 551C453.224 541.057 461.342 533.863 465 525C452.56 530.543 443.041 542.27 433.975 552C410.406 577.296 389.822 606.543 371.811 636C361.846 652.298 352.511 668.551 363 687z"/>
<path style="fill:#000000; stroke:none;" d="M494 583C500.244 578.641 506.005 574.648 514 574.275C521.203 573.938 528.757 577.398 536 578L535 575L541 578C539.13 572.849 532.039 570.758 527 570C528.711 564.875 531.819 562.349 537 561L536 557L541 557C542.752 553.724 549.301 548.454 552.626 553.033C555.089 556.426 554.633 562.16 554 566C558.338 560.274 553.789 552.293 557.179 546.17C561.624 538.14 572.391 535.022 577 527C565.49 527.008 559.505 533.85 551 540.919C543.558 547.104 535.731 552.188 528 557.854C524.174 560.658 520.707 564.35 516.576 566.698C513.37 568.519 509.432 568.195 506 569.421C499.478 571.749 496.415 576.88 494 583z"/>
<path style="fill:#473f34; stroke:none;" d="M450 545L450 547L452 547C451.455 545.365 451.635 545.545 450 545z"/>
<path style="fill:#e3dfde; stroke:none;" d="M557 545L557 555C558.346 551.793 558.346 548.207 557 545z"/>
<path style="fill:#100c0b; stroke:none;" d="M556 546L556 555C557.256 552.006 557.256 548.994 556 546z"/>
<path style="fill:#2b221b; stroke:none;" d="M451.333 547.667C451.278 547.722 451.222 548.778 451.667 548.333C451.722 548.278 451.778 547.222 451.333 547.667z"/>
<path style="fill:#040000; stroke:none;" d="M452 548C454.156 560.096 464.236 570.034 476 573C469.793 564.188 460.388 554.763 452 548z"/>
<path style="fill:#fdd7c0; stroke:none;" d="M458 550L458 554C458.71 552.24 458.71 551.76 458 550z"/>
<path style="fill:#010101; stroke:none;" d="M541 557L536 557L537 561C531.482 561.88 528.131 564.412 527 570C532.067 571.215 538.231 573.408 541 578C538.996 576.727 537.223 575.828 535 575C535 576.797 535.014 576.521 536 578C534.314 577.782 533.684 577.776 532 578C545.001 586.736 561.723 590.273 563.477 609C563.867 613.166 561.047 615.928 558.661 619C554.375 624.52 550.276 630.223 546.344 636C534.043 654.076 522.231 672.5 509.105 690C503.414 697.588 496.427 704.294 491 712C496.592 710.991 501.052 707.634 506 705L505 715C513.59 710.775 514.476 698.214 520.201 691C531.694 676.516 540.338 660.803 549.8 645C554.79 636.667 559.848 626.16 568.001 620.449C572.811 617.08 578.254 620.396 583 622.427C595.251 627.671 605.521 634.371 608.575 648C609.361 651.507 610.42 655.414 609.577 659C608.466 663.727 605.338 666.957 605 672C607.183 670.363 607.448 671.762 608 669L612 673C614.284 669.127 616.641 665.294 618 661C624.759 663.199 633.272 664.951 638.895 669.498C645.032 674.461 647.008 684.68 648.765 692C650.749 700.27 653.108 708.396 651.674 717C647.972 739.216 631.139 757.688 625 779C628.026 777.444 630.247 774.994 633 773C630.187 781.893 629.884 792.108 624.351 800C616.69 810.927 601.286 816.819 589 820.653C584.37 822.098 578.884 823.823 574 823.481C558.608 822.405 544.849 814.33 530 811.379C519.864 809.364 507.596 813.915 498 809.583C484.309 803.403 475.251 789.764 462 783C462.901 784.922 463.076 784.999 465 786C462.023 787.38 459.221 787.452 456 788C463.86 795.614 473.178 802.621 482 809.116C487.018 812.81 492.78 817.265 499 818.61C508.256 820.611 517.958 816.354 527 818.877C541.672 822.969 555.65 829.364 571 830.83C589.482 832.596 613.924 823.017 626.96 809.96C635.925 800.98 638.337 788.109 640 776C640.652 771.25 640.235 765.427 642.086 761C649.736 742.695 662.47 727.247 659.711 706C658.402 695.926 655.939 685.52 652.41 676C650.527 670.923 648.477 665.964 643.982 662.638C639.464 659.296 633.3 657.464 628 655.745C624.775 654.7 620.94 654.184 618.514 651.581C614.044 646.784 614.995 637.698 611.15 632C606.022 624.402 597.745 622.18 591.275 616.366C587.36 612.848 585.618 606.495 582.988 602C577.805 593.141 571.599 585.003 565.2 577C562.071 573.087 559.091 566.952 554 566C554.837 562.359 555.516 555.543 552.742 552.434C549.109 548.362 542.211 553.266 541 557z"/>
<path style="fill:#523e33; stroke:none;" d="M548 552L548 559C549.059 556.466 549.059 554.534 548 552z"/>
<path style="fill:#f9bc9d; stroke:none;" d="M547 553C541.158 558.38 533.99 562.831 529 569C537.63 570.998 545.344 576.916 554 578C552.315 573.934 549.535 570.353 548.529 566C547.53 561.677 548.722 557.103 547 553z"/>
<path style="fill:#eebca1; stroke:none;" d="M418 587C425.066 581.164 429.674 572.091 435.468 564.999C437.919 561.998 441.09 557.849 444.998 556.773C447.167 556.176 449.797 556.834 452 557C448.361 552.22 442.782 554.533 439.015 558.059C431.16 565.41 421.829 576.902 418 587z"/>
<path style="fill:#2b2724; stroke:none;" d="M556 555L556 558C556.696 556.446 556.696 556.554 556 555z"/>
<path style="fill:#f8b99a; stroke:none;" d="M390 658L390 660C385.86 659.791 380.899 657.337 378 661C383.821 660.667 385.823 663.653 387 669L390 668C389.095 670.834 388.522 672.426 386 674C387.377 674.911 388.44 675.404 390 676L390 671C390.644 673.106 390.906 674.795 391 677L398 668C398.031 671.735 398.533 675.305 399 679C400.213 676.11 399.998 673.126 400 670C406.449 670 411.787 670.54 418 672L418 678L412 676C412.026 679.122 412.276 681.96 413 685C411.263 685.937 410.698 687.713 409 689L409 691C410.014 693.081 409.745 693.713 409 696C410.996 696.974 410.781 696.738 411 699L417 703L416 704C421.096 703.983 424.469 701.708 429.2 700.988C432.045 700.554 435.016 702.103 437.965 701.941C441.426 701.752 444.498 700.148 448.004 700.019C454.046 699.796 461.81 701.546 467 698C469.382 699.678 471.087 699.916 474 700C474.012 696.534 473.875 693.804 476 691C474.494 690.317 473.685 690.174 472 690C470.998 683.186 465.24 683.273 460 686C460.018 680.776 460.367 677.888 465 675C463.817 667.011 470.929 663.358 472 656L480 656C481.204 651.307 484.719 647.586 487.29 643.525C489.852 639.48 491.642 635.028 494.251 630.996C495.831 628.554 496.153 625.129 498.569 623.313C502.194 620.589 507.384 620.807 511 618C512.543 620.041 513.387 621.526 514 624L516 624L516 620L518 620C518.165 624.986 520.744 628.594 525 624C526.186 625.036 526.604 625.339 528 626C525.992 630.741 526.298 634.969 526 640C535.613 640 541.856 639.844 546 630C540.697 627.216 535.679 626.521 534 620L528 620C528 616.01 527.526 612.266 530 609L524 605C529.339 597.155 514.99 595.664 510 595C511.186 593.814 511.528 593.416 512 592L508 592L507 596C505.446 593.677 504.652 592.827 502 592C499.951 594.832 498.166 596.52 495 598C493.715 602.404 489.018 606.831 496 608L496 610C493.67 610.315 492.082 610.902 490 612C489.749 610.548 489.685 610.248 489 609L485 612L490 604C482.266 608.168 477.248 619.037 472.116 626C465.014 635.635 455.736 645.319 450.329 656C447.776 661.044 448.859 665.68 447.722 670.907C447.186 673.37 445.29 674.999 444.509 677.325C443.419 680.572 444 684.618 444 688L428 688C429.762 684.685 430.03 682.614 429 679L426 680C425.69 677.753 425.336 676.826 424 675C425.635 674.455 425.455 674.635 426 673C422.711 671.18 419.491 669.403 416 668C417.492 664.162 425.37 657.403 422 654L422 652C424.464 649.825 422.835 645.316 424 642L420 642L422 634L426 636L427 631C422.783 626.706 422.02 621.841 422 616L426 616C426 612.751 426.046 611.818 429 613L428 614C430.003 612.266 429.923 610.645 430 608C431.635 608.545 431.455 608.365 432 610L434 610C436.288 608.566 437.462 609.102 440 610C441.07 605.907 443.262 604.683 447 603L446 600C448.409 597.896 447.99 595.094 448 592L454 592L454 588L462 588C462.919 584.775 463.285 583.105 462 580L472 578C468.326 569.38 459.668 564.076 455 556C451.302 556.391 446.356 555.438 443 557.042C435.693 560.534 430.397 570.724 425.629 577.015C413.252 593.344 401.223 609.177 390.826 627C387.306 633.034 387.074 639.879 384.231 646.089C383.135 648.485 380.798 651.901 381.711 654.656C382.816 657.986 387.182 657.916 390 658z"/>
<path style="fill:#504c4b; stroke:none;" d="M556 558L556 561C556.696 559.446 556.696 559.554 556 558z"/>
<path style="fill:#241005; stroke:none;" d="M548 559L548 564C548.83 561.97 548.83 561.03 548 559z"/>
<path style="fill:#171312; stroke:none;" d="M556 561L556 566C556.83 563.97 556.83 563.03 556 561z"/>
<path style="fill:#dfdbda; stroke:none;" d="M557 563L557 566C557.696 564.446 557.696 564.554 557 563z"/>
<path style="fill:#5d4539; stroke:none;" d="M548 564L548 567C548.696 565.446 548.696 565.554 548 564z"/>
<path style="fill:#917569; stroke:none;" d="M509.667 566.333C509.222 566.778 510.278 566.722 510.333 566.667C510.778 566.222 509.722 566.278 509.667 566.333z"/>
<path style="fill:#5a3f36; stroke:none;" d="M511 566C513.052 566.874 514.747 566.953 517 567C514.948 566.126 513.253 566.047 511 566z"/>
<path style="fill:#010000; stroke:none;" d="M420 665C424.77 667.001 430.359 665.958 435 664C433.657 668.661 431.248 672.727 429 677C442.546 671.752 444.523 656.917 451.671 646C461.294 631.3 471.402 616.922 482.119 603C489.292 593.681 496.588 584.171 506 577C500.944 575.09 497.324 579.715 494 583C499.537 573.147 505.301 568.242 517 568C503.495 562.333 491.727 578.256 484.272 587C473.7 599.398 464.051 612.648 454.72 626C448.552 634.826 443.331 645.132 435.896 652.961C431.306 657.794 425.486 661.298 420 665z"/>
<path style="fill:#926049; stroke:none;" d="M476.333 572.667C476.278 572.722 476.222 573.778 476.667 573.333C476.722 573.278 476.778 572.222 476.333 572.667z"/>
<path style="fill:#201911; stroke:none;" d="M511 574C513.332 574.984 515.457 574.981 518 575C515.668 574.015 513.543 574.019 511 574z"/>
<path style="fill:#e9e1d4; stroke:none;" d="M510 575C512.89 576.213 515.874 575.998 519 576C516.11 574.787 513.126 575.002 510 575z"/>
<path style="fill:#949087; stroke:none;" d="M519.667 575.333C519.222 575.778 520.278 575.722 520.333 575.667C520.778 575.222 519.722 575.278 519.667 575.333z"/>
<path style="fill:#e6c5b4; stroke:none;" d="M552 578C553.896 580.02 555.415 580.995 558 582C556.094 579.677 554.892 578.806 552 578z"/>
<path style="fill:#f9d0b4; stroke:none;" d="M512 580C514.332 580.984 516.457 580.981 519 581C516.668 580.016 514.543 580.019 512 580z"/>
<path style="fill:#f6b99c; stroke:none;" d="M485 612C487.319 611.042 488.485 609.862 490 612L496 610L496 608C490.122 606.155 494.288 602.374 495 598C498.678 596.959 500.347 595.436 502 592C504.148 593.08 505.389 594.208 507 596L508 592L512 592C510.814 593.186 510.472 593.584 510 595C515.057 596.33 527.862 596.98 524 605C526.086 606.867 527.246 607.566 530 608C527.458 611.63 528 615.692 528 620L534 620C534.986 626.768 540.371 627.836 546 630C544.108 633.063 542.076 636.879 538.816 638.682C532.503 642.173 521.041 640 514 640L514 644C512.977 642.466 513.195 642.598 512 642L509 644C508.314 639.519 501.469 643.89 505.31 647.931C505.959 648.613 507.227 648.739 508 649L504 653C505.006 654.731 505.546 656.053 506 658L510 656C510.021 662.184 511.995 667.781 512 674L516 674C514.509 677.435 512.566 680.248 512 684C508.84 684.983 506.629 686.994 504 689L505 693L498 694L501 697C497.759 698.816 496.579 700.317 496 704C492.825 705.054 491.805 706.803 491 710C501.497 702.605 509.031 690.336 516.421 680C530.267 660.635 543.912 640.869 557 621L552 621L552 614C547.013 613.624 542.928 611.53 544 606L538 605C539.035 603.814 539.339 603.396 540 602L530 600C529.448 596.212 526.937 593.653 526 590C527.915 591.277 527.085 591.277 529 590C526.709 585.417 523.87 584.096 520 581L521 580C516.798 580.78 511.858 580.506 508.004 582.457C504.239 584.362 501.69 587.918 498.95 591C493.268 597.39 488.326 604.093 485 612z"/>
<path style="fill:#fce2cb; stroke:none;" d="M531 581C533.862 582.376 536.838 582.749 540 583C537.078 580.761 534.607 580.731 531 581z"/>
<path style="fill:#f1cfb6; stroke:none;" d="M523 581C525.739 582.562 527.905 582.435 531 582C528.387 580.902 525.836 581.007 523 581z"/>
<path style="fill:#300c00; stroke:none;" d="M522.667 582.333C522.222 582.778 523.278 582.722 523.333 582.667C523.778 582.222 522.722 582.278 522.667 582.333z"/>
<path style="fill:#f6b99a; stroke:none;" d="M528 582C530.738 586.512 535.999 588.853 539.829 592.439C544.531 596.841 547.996 602.358 551 608C543.807 599.766 536.612 591.477 527 586C527.613 587.661 528.043 588.483 529 590L526 590C526.551 593.788 529.063 596.347 530 600C533.447 600.768 536.414 601.894 540 602L538 605C540.106 605.644 541.795 605.906 544 606C543.455 607.635 543.635 607.455 542 608C544.203 612.571 547.04 613.839 552 614L552 621C564.74 620.037 563.27 603.242 558.026 595.004C551.753 585.147 538.923 582.03 528 582z"/>
<path style="fill:#1b0000; stroke:none;" d="M524 583C530.541 589.316 538.571 595.772 546 601C542.72 592.535 532.95 584.615 524 583z"/>
<path style="fill:#fadbc9; stroke:none;" d="M540.667 583.333C540.222 583.778 541.278 583.722 541.333 583.667C541.778 583.222 540.722 583.278 540.667 583.333z"/>
<path style="fill:#6b5955; stroke:none;" d="M568 595L568 597L570 597C569.455 595.365 569.635 595.545 568 595z"/>
<path style="fill:#e2c6b8; stroke:none;" d="M570.333 598.667C570.278 598.722 570.222 599.778 570.667 599.333C570.722 599.278 570.778 598.222 570.333 598.667z"/>
<path style="fill:#9e8171; stroke:none;" d="M570.333 600.667C570.278 600.722 570.222 601.778 570.667 601.333C570.722 601.278 570.778 600.222 570.333 600.667z"/>
<path style="fill:#eec1ae; stroke:none;" d="M571 600C571.249 605.434 572.193 609.761 578 611C576.241 606.919 574.2 603.103 571 600z"/>
<path style="fill:#f3c3ac; stroke:none;" d="M560 601C560.59 605.38 561.807 609.564 562 614C563.827 609.635 562.776 604.731 560 601z"/>
<path style="fill:#4a1d06; stroke:none;" d="M547 602C547.684 603.58 547.805 603.777 549 605C548.316 603.42 548.195 603.223 547 602z"/>
<path style="fill:#99664b; stroke:none;" d="M549.333 605.667C549.278 605.722 549.222 606.778 549.667 606.333C549.722 606.278 549.778 605.222 549.333 605.667z"/>
<path style="fill:#cc9376; stroke:none;" d="M550.333 606.667C550.278 606.722 550.222 607.778 550.667 607.333C550.722 607.278 550.778 606.222 550.333 606.667z"/>
<path style="fill:#372318; stroke:none;" d="M571.333 606.667C571.278 606.722 571.222 607.778 571.667 607.333C571.722 607.278 571.778 606.222 571.333 606.667z"/>
<path style="fill:#bf9f92; stroke:none;" d="M572.333 608.667C572.278 608.722 572.222 609.778 572.667 609.333C572.722 609.278 572.778 608.222 572.333 608.667z"/>
<path style="fill:#cbaa9b; stroke:none;" d="M563 609L563 613C563.71 611.24 563.71 610.76 563 609z"/>
<path style="fill:#b7978c; stroke:none;" d="M573.667 610.333C573.222 610.778 574.278 610.722 574.333 610.667C574.778 610.222 573.722 610.278 573.667 610.333z"/>
<path style="fill:#f6b99a; stroke:none;" d="M511 618C507.139 620.121 501.22 620.475 497.892 623.313C495.929 624.987 495.609 628.118 494.251 630.255C491.678 634.301 489.817 638.704 487.29 642.765C484.619 647.057 480.743 650.894 480 656L472 656C470.192 663.047 462.745 667.14 465 675C459.724 677.239 460.004 680.769 460 686C465.439 683.917 470.263 683.357 472 690L476 690C474.664 691.826 474.31 692.753 474 695L478 692C478.092 695.089 478.572 697.258 480 700L482 700L482 698L484 698L484 700L486 700L486 698L488 698C488.768 699.314 488.686 699.232 490 700C490.224 698.316 490.218 697.687 490 696C492.409 693.896 491.99 691.094 492 688L496 688C496.768 684.553 497.894 681.586 498 678L506 678C505.232 676.686 505.314 676.768 504 676L504 674C505.803 672.46 505.832 671.403 506 669L509 672C509.683 670.494 509.826 669.685 510 668L512 669C511.703 664.527 510.05 660.556 510 656L506 658C505.693 655.877 505.618 655.314 504 654C505.328 652.39 506.383 651.299 508 650C507.31 649.08 502.227 646.318 503 644L504 644C507.149 641.301 506.515 640.909 510 643L509 644C511.013 643.499 512.039 643.363 514 644C514.224 642.316 514.218 641.687 514 640C516.994 640 522.795 641.082 525.218 638.972C527.389 637.083 527.052 629.044 528 626L525 624C520.397 627.304 518.362 625.253 518 620L516 620L516 624L514 624C513.611 621.261 513.013 619.9 511 618z"/>
<path style="fill:#b6998b; stroke:none;" d="M570.667 618.333C570.222 618.778 571.278 618.722 571.333 618.667C571.778 618.222 570.722 618.278 570.667 618.333z"/>
<path style="fill:#f7bc9e; stroke:none;" d="M545 655C550.578 651.746 550.086 644.337 555.379 641.028C557.839 639.49 561.243 640.094 564 639.83C571.758 639.088 583.675 637.702 590.714 641.899C595.244 644.599 597.588 649.249 601 653C599.703 654.594 599.465 655.018 599 657C600.797 657 600.521 656.986 602 656L599 659L601 663C599.365 662.455 599.545 662.635 599 661L595 663C596.919 664.144 597.732 664.174 600 664C600.98 665.783 600.908 665.594 603 666L602 671C610.951 662.327 611.267 645.96 603.581 636.015C599.465 630.688 592.946 627.25 587 624.36C582.702 622.27 575.923 618.403 571 619.361C566.99 620.142 563.916 624.017 561.465 627C555.073 634.778 547.855 645.295 545 655z"/>
<path style="fill:#c99379; stroke:none;" d="M573 625L573 627C574.635 626.455 574.455 626.635 575 625L573 625z"/>
<path style="fill:#734837; stroke:none;" d="M574 626C575.139 627.015 575.612 627.309 577 628C576.02 626.217 576.092 626.406 574 626z"/>
<path style="fill:#572d1d; stroke:none;" d="M577 627L577 629C578.635 628.455 578.455 628.635 579 627L577 627z"/>
<path style="fill:#160000; stroke:none;" d="M578 628C584.588 634.872 593.221 642.521 601 648C597.572 639.152 587.441 629.826 578 628z"/>
<path style="fill:#f7b899; stroke:none;" d="M387 633C383.744 639.974 379.251 646.559 377.044 654C370.108 677.388 391.801 688.433 401.652 706C407.183 715.864 409.815 727.363 413.495 738C415.308 743.239 416.567 749.489 420.471 753.66C424.104 757.542 430.144 758.825 435 760.505C444.136 763.665 452.898 767.896 462 771C455.563 763.479 446.042 760.371 440 752C437.305 752.845 434.806 753.657 432 754C433.516 753.043 434.339 752.613 436 752L436 736C428.101 733.966 428.436 725.353 422 722L422 720C423.314 719.232 423.232 719.314 424 718L416 716C415.99 712.906 416.409 710.104 414 708L414 706C415.733 704.778 416.151 703.991 417 702L411 699C411.575 696.604 411.475 696.513 409 696C410.17 693.694 410.878 692.825 409 691L409 689L413 685C412.438 681.975 412.064 679.078 412 676C414.082 677.098 415.67 677.685 418 678L418 672C411.957 669.841 406.375 670 400 670L400 679C398.627 675.333 398.081 671.911 398 668C394.894 670.173 393.322 673.491 392 677C391.356 674.894 391.094 673.205 391 671C390.221 672.769 390.088 674.036 390 676L386 675C387.479 674.014 387.203 674 389 674L390 668C388.203 668 388.479 668.014 387 669C386.222 663.418 384.12 659.818 378 661C381.515 658.017 385.663 659.901 390 660L390 658C374.141 656.935 389.532 642.069 387 633z"/>
<path style="fill:#f6b99c; stroke:none;" d="M515 706C518.14 705.313 520.818 705.704 524 706C525.154 703.751 525.751 703.154 528 702C528.463 695.516 531.811 690.238 532 684L537 685C536.455 686.635 536.635 686.455 535 687C546.814 691.806 542.706 675.923 544 670L540 670C542.753 665.619 545.325 661.184 546 656L554 656C554.23 663.572 559.487 670.103 560 678L566 676C566 679.025 565.496 682.676 566.843 685.482C567.905 687.694 570.118 689.086 571.157 691.325C574.07 697.597 576.208 705.093 577 712C582.065 706.171 585.342 698.556 589.425 692C594.523 683.814 601.655 675.782 603 666C601.42 665.316 601.223 665.195 600 664C597.903 664.047 596.903 663.866 595 663C597.884 661.987 598.314 662.137 601 663C600.387 661.338 599.957 660.517 599 659C600.924 657.999 601.099 657.922 602 656L599 657C599.683 655.42 599.805 655.223 601 654C594.254 639.189 579.897 637.62 565 639.576C561.876 639.986 557.313 639.207 554.61 641.028C550.72 643.648 550.531 649.255 547.586 652.625C538.943 662.515 533.749 674.072 526.522 685C521.878 692.021 515.775 697.192 515 706z"/>
<path style="fill:#ffefdb; stroke:none;" d="M377 645C377.286 650.294 374.496 654.013 373.665 659C373.039 662.76 373.997 667.155 374 671C372.521 670.014 372.797 670 371 670C371.489 667.415 371.187 666.365 370 664C368.054 667.248 368.377 670.371 367.741 674C367.026 678.081 363.92 681.82 364.188 686.039C364.808 695.822 377.641 705.641 384 712C388.632 716.632 393.148 723.037 399 726C398.249 722.797 396.962 720.644 395 718L398 717C401.321 724.708 407.853 729.971 412 737C412.911 732.661 410.111 728.171 408.91 724C406.59 715.944 404.082 707.874 399.073 701C392.611 692.134 383.221 685.022 378.403 675C372.57 662.867 378.354 655.679 381 644L377 645z"/>
<path style="fill:#1c1817; stroke:none;" d="M616 646L616 649C616.696 647.446 616.696 647.554 616 646z"/>
<path style="fill:#af9284; stroke:none;" d="M608 648L608 651C608.696 649.446 608.696 649.554 608 648z"/>
<path style="fill:#825035; stroke:none;" d="M601 649C601.545 650.635 601.365 650.455 603 651L603 649L601 649z"/>
<path style="fill:#484647; stroke:none;" d="M617.333 650.667C617.278 650.722 617.222 651.778 617.667 651.333C617.722 651.278 617.778 650.222 617.333 650.667z"/>
<path style="fill:#5c4235; stroke:none;" d="M609.333 652.667C609.278 652.722 609.222 653.778 609.667 653.333C609.722 653.278 609.778 652.222 609.333 652.667z"/>
<path style="fill:#a08373; stroke:none;" d="M609.333 654.667C609.278 654.722 609.222 655.778 609.667 655.333C609.722 655.278 609.778 654.222 609.333 654.667z"/>
<path style="fill:#585453; stroke:none;" d="M623.667 654.333C623.222 654.778 624.278 654.722 624.333 654.667C624.778 654.222 623.722 654.278 623.667 654.333z"/>
<path style="fill:#f6b99a; stroke:none;" d="M546 656C544.858 661.039 542.059 665.315 540 670L544 670C541.559 675.927 547.38 684.606 539.025 687.566C537.765 688.013 536.303 687.929 535 688C536.036 686.814 536.339 686.396 537 685L532 684C531.734 687.887 529.655 689.819 528.589 693.325C527.414 697.191 528.577 700.611 526 704L526 706C528.303 709.04 527.997 712.268 528 716L524 716C524.661 717.396 524.964 717.814 526 719C523.314 719.501 520.73 719.883 518 720C517.747 723.709 516.948 725.695 514 728L514 730L516 730L516 732C512.569 733.375 509.415 736.122 506 734L504 734C501.199 736.122 498.477 735.994 495 736C491.904 736.006 488.22 736.481 485.326 735.157C477.487 731.57 479.142 717.14 478 710C480.123 709.693 480.686 709.618 482 708L478 709C478.817 706.159 480.453 704.449 482 702C479.319 702.048 478.292 701.064 476 700L476 710C473.801 709.492 471.943 709.099 470 708L468 708C466.545 708.962 466.761 708.791 465 708C463.98 711.45 463.073 715.442 466 718L466 720L460 722C460.257 725.794 459.89 729.303 459 733C457.521 732.014 457.797 732 456 732L456 734L454 734L454 730C451.092 730.083 449.308 730.241 447 732C444.899 729.287 444.024 727.446 444 724C440.933 721.774 438.954 719.707 438 716L434 717L433.951 714.861C435.133 706.511 439.74 715.54 442.563 717.142C444.205 718.073 446.188 717.945 448 718C446.636 716.181 446.508 716.969 447 715C444.88 713.838 443.635 712.795 442 711L446 712C446.495 709.237 447.094 706.656 448 704L453 706C453.562 704.199 453.824 702.878 454 701C455.635 701.545 455.455 701.365 456 703L458 703C459.724 701.945 459.921 701.964 462 702C459.164 698.755 453.057 699.975 449.001 700.001C445.062 700.026 441.772 701.547 437.965 701.853C435.115 702.082 432.735 700.497 430.001 700.519C427.394 700.54 425.106 702.464 422.711 703.272C419.694 704.291 416.879 704.502 414 706L414 708C415.942 710.56 415.965 712.808 416 716L424 718C423.455 719.635 423.635 719.455 422 720L422 722C427.666 726.391 427.952 734.827 436 736L436 752L432 753C434.99 754.133 437.105 753.224 440 752C441.618 755.292 444.289 758.746 448.04 759.686C452.53 760.811 457.139 758.587 460 763C461.902 761.666 461.966 761.337 462 759C468.682 757.83 473.565 761.149 480 762L480 764L476 764L476 768C477.952 768.511 478.457 768.733 480 770L482 770C486.23 766.18 492.521 764.696 496 760L498 760C500.794 767.291 499.628 776.48 498 784C501.838 783.441 504.012 781.351 507 779C507 780.797 507.014 780.521 508 782C510.394 781.352 511.536 780.968 513 779C516.011 785.203 525.562 783.768 532 784L533 788C533.683 786.494 533.826 785.685 534 784L536 784L536 788L540 788L538 782L542 782C541.999 776.682 542.882 771.099 536 772C534.528 769.186 533.122 768.456 530 768L530 762C531.186 763.036 531.603 763.339 533 764L532 762C533.958 762.7 534.949 762.939 537 763C535.745 761.334 534.841 759.901 534 758C536.003 759.253 537.767 760.242 540 761C540.218 759.313 540.224 758.684 540 757C541.797 757 541.521 756.986 543 756C540.943 750.119 541.547 746.001 543 740L538 740L538 736C544.491 735.803 543.986 732.477 548.568 729.314C550.645 727.88 553.287 728.34 555.432 727.144C558.085 725.664 562.16 720.485 564 718L566 718L566 720L568 720C569.857 717.982 571.19 716.63 572 714L576 715C580.234 700.403 566.011 689.751 566 676C563.67 676.315 562.082 676.902 560 678C559.763 669.957 554.517 663.559 554 656L546 656z"/>
<path style="fill:#49352e; stroke:none;" d="M618.667 661.333C618.222 661.778 619.278 661.722 619.333 661.667C619.778 661.222 618.722 661.278 618.667 661.333z"/>
<path style="fill:#383232; stroke:none;" d="M349.333 662.667C349.278 662.722 349.222 663.778 349.667 663.333C349.722 663.278 349.778 662.222 349.333 662.667z"/>
<path style="fill:#f1c4ad; stroke:none;" d="M618 664C629.701 663.905 640.116 671.315 644 682C646.88 672.235 635.251 667.105 628 664.667C624.749 663.575 620.642 661.235 618 664z"/>
<path style="fill:#f7bc9e; stroke:none;" d="M595 703C599.711 702.292 602.586 703.862 607 705C607 703.203 606.986 703.479 606 702C609.713 698.764 607.553 691.373 607 687C614.175 687.762 621.748 687.838 629 688C626.224 684.649 622.98 682.718 619 681C633.438 681.47 647.672 698.065 648 712L644 711C643.045 712.767 642.434 713.607 641 715C642.084 718.543 645.634 722.442 645.967 725.92C646.277 729.156 643.678 733.728 643 737C657.189 722.376 650.922 693.973 642.944 678C639.259 670.622 634.485 668.461 627 665.783C624.426 664.863 621.064 663.107 618.329 664.363C615.778 665.535 614.5 668.699 613.23 671.001C610.589 675.785 607.594 680.377 604.681 685C601.094 690.694 596.91 696.508 595 703z"/>
<path style="fill:#ccc6c6; stroke:none;" d="M348 665L348 673C349.161 670.23 349.161 667.77 348 665z"/>
<path style="fill:#d1cbbd; stroke:none;" d="M357 665L357 672C358.059 669.466 358.059 667.534 357 665z"/>
<path style="fill:#2c1203; stroke:none;" d="M419 666C421.613 667.098 424.164 666.993 427 667C424.387 665.902 421.836 666.007 419 666z"/>
<path style="fill:#7b5b4c; stroke:none;" d="M427 666C428.248 666.685 428.548 666.749 430 667C428.752 666.315 428.452 666.251 427 666z"/>
<path style="fill:#f8b99a; stroke:none;" d="M510 668L510 672C508.551 670.564 507.778 669.885 506 669C505.697 671.294 505.421 672.212 504 674L504 676C505.635 676.545 505.455 676.365 506 678C503.217 677.555 500.8 677.703 498 678L496 688L492 688C491.965 691.192 491.942 693.44 490 696L490 700C488.365 699.455 488.545 699.635 488 698L486 698L486 700L484 700L484 698L482 698C481.455 699.635 481.635 699.455 480 700L480 702C481.635 702.545 481.455 702.365 482 704C479.036 704.968 478.497 705.934 478 709L482 708C480.457 709.267 479.952 709.489 478 710C478.291 714.896 479.298 719.255 479.871 724.039C480.393 728.403 479.814 732.867 484.519 735.157C487.561 736.637 491.719 736.001 495 736C498.317 735.999 501.724 736.604 504 734L506 734C508.785 737.154 512.97 733.702 516 732L516 730L514 730L514 728C517.513 726.158 517.884 723.807 518 720C520.784 719.942 523.291 719.648 526 719L524 716L528 716C528 712.491 528.782 708.431 526 706L526 704C527.314 703.232 527.232 703.314 528 702C525.373 702.839 524.839 703.374 524 706C522.194 705.651 519.885 704.75 518.036 705.059C513.597 705.8 511.541 711.933 508.79 714.91C505.614 718.347 501.532 720.944 498 724C501.535 718.128 504.679 713.008 505 706C499.276 708.672 494.022 711.95 488 714C490.667 710.466 492.006 706.16 496 704C496.935 700.702 498.35 699.171 501 697C499.861 695.984 499.388 695.691 498 695L505 693L504 689L512 684L516 674L512 674C511.826 671.388 511.582 670.057 510 668z"/>
<path style="fill:#000000; stroke:none;" d="M604 669C595.11 683.713 585.46 697.83 577.309 713C573.885 719.374 572.087 726.621 568.606 732.91C566.475 736.761 562.299 738.803 559.479 742.09C555.325 746.932 553.799 752.821 553 759C557.324 754.54 560.864 749.646 566 746C566 751.298 565.911 756.049 568 761C572.968 754.029 574.015 743.003 577.427 735C584.01 719.563 592.662 705.418 601.139 691C604.618 685.082 614.63 674.994 608 669C606.461 672.077 606.721 668.397 606 672L604 669z"/>
<path style="fill:#dfd9d9; stroke:none;" d="M349.333 677.667C349.278 677.722 349.222 678.778 349.667 678.333C349.722 678.278 349.778 677.222 349.333 677.667z"/>
<path style="fill:#794c37; stroke:none;" d="M428.667 677.333C428.222 677.778 429.278 677.722 429.333 677.667C429.778 677.222 428.722 677.278 428.667 677.333z"/>
<path style="fill:#806659; stroke:none;" d="M644.333 677.667C644.278 677.722 644.222 678.778 644.667 678.333C644.722 678.278 644.778 677.222 644.333 677.667z"/>
<path style="fill:#b78167; stroke:none;" d="M619 680C619.545 681.635 619.365 681.455 621 682L621 680L619 680z"/>
<path style="fill:#f0c2a8; stroke:none;" d="M528 681C518.87 692.503 511.923 704.624 506 718C514.536 711.661 514.883 700.99 521.173 692.961C523.853 689.539 528.379 685.56 528 681z"/>
<path style="fill:#55250e; stroke:none;" d="M621.667 681.333C621.222 681.778 622.278 681.722 622.333 681.667C622.778 681.222 621.722 681.278 621.667 681.333z"/>
<path style="fill:#c6a390; stroke:none;" d="M645.333 681.667C645.278 681.722 645.222 682.778 645.667 682.333C645.722 682.278 645.778 681.222 645.333 681.667z"/>
<path style="fill:#170000; stroke:none;" d="M623 682C628.788 688.333 636.981 695.056 644 700C640.595 691.211 631.915 684.573 623 682z"/>
<path style="fill:#f6b99a; stroke:none;" d="M607 687L608 704L610 704C610 698.919 609.817 693.97 611 689C612.918 695.488 611.287 700.533 616 706C613.795 706.094 612.106 706.356 610 707C611.222 708.972 612.149 710.634 614 712L614 714C611.591 716.104 612.01 718.906 612 722C613.662 721.387 614.483 720.957 616 720L616 730C617.314 729.232 617.232 729.314 618 728L620 728C620.768 729.314 620.686 729.232 622 730L622 718C623.517 718.957 624.339 719.387 626 720C625.461 716.299 622.811 710.392 620 708L620 706C621.783 705.02 621.594 705.092 622 703L626 704L628 700L630 700C631.945 702.392 635.226 703.589 638 705L640 701C636.711 697.674 634.086 691.583 630.491 689.024C624.671 684.881 613.672 687.357 607 687z"/>
<path style="fill:#f6b99c; stroke:none;" d="M611 689C609.565 693.853 610 698.964 610 704L606 702L607 705C604.736 704.08 602.517 702.614 600.05 702.319C592.099 701.372 588.461 712.318 585.601 718C581.482 726.185 577.506 734.327 574.505 743C572.319 749.317 571.111 756.072 568 762C566.18 757.045 565.109 752.289 565 747C559.786 750.673 555.582 755.13 553 761C550.464 749.137 561.279 742.996 567.298 734.83C571.252 729.467 573.431 721.179 576 715L572 714L568 720L566 720L566 718L564 718C561.212 720.546 558.415 724.627 555.432 726.686C553.147 728.263 550.084 727.62 547.875 729.314C543.791 732.445 543.944 735.592 538 736L538 740L543 740C541.149 746.019 540.113 750.212 543 756L540 757L540 761L534 758C534.659 760.358 535.267 761.243 537 763L532 762L533 764L530 762C529.762 764.095 529.816 765.889 530 768C532.857 768.733 534.191 769.669 536 772C542.424 772.107 541.996 776.679 542 782L538 782C538.315 784.33 538.902 785.918 540 788L536 788L536 784L534 784L534 788C533.043 786.483 532.613 785.661 532 784C526.612 783.426 515.723 784.665 514 779C512.03 780.227 510.168 781.171 508 782L507 779C503.858 780.74 501.531 783.092 498 784C500.486 777.445 501.363 766.464 498 760L496 760C493.139 762.608 489.764 765.034 486 766C486.375 769.284 486.807 770.881 490 772L488 776L496 776C495.965 779.192 495.942 781.44 494 784L494 786C496.708 788.655 497.088 790.39 496 794L500 794L500 799C495.122 797.827 491.496 794.989 487 793C502.361 814.342 532.701 799.061 550 818C558.317 816.908 567.178 823.13 576 822.946C591.124 822.631 614.693 813.43 623.671 800.961C628.547 794.19 630.829 784.223 631 776C627.776 777.496 625.553 779.52 623 782C622.469 775.591 627.076 768.587 630 763C628.339 763.613 627.517 764.043 626 765L626 760L616 760C616 745.166 627.586 733.513 623 718C621.448 721.697 622 726.017 622 730C620.365 729.455 620.545 729.635 620 728L618 728C617.455 729.635 617.635 729.455 616 730L616 720L612 722C612.035 718.808 612.058 716.56 614 714L614 712L610 707L616 706C614.801 703.995 613.062 702.256 612.429 699.946C611.426 696.287 612.484 692.538 611 689z"/>
<path style="fill:#f5ba9c; stroke:none;" d="M632 690C633.297 694.97 635.846 698.041 640 701C638.703 702.594 638.465 703.018 638 705L630 700L628 700L626 704L622 703C621.316 704.58 621.195 704.777 620 706L620 708C625.867 715.495 625.934 727.096 622.581 735.961C620.841 740.562 617.335 745.531 616.278 750.184C615.573 753.288 616 756.834 616 760L626 760C625.66 762.018 625.677 762.967 626 765L630 763C626.481 768.001 622.966 774.931 622 781C625.847 777.194 627.867 771.823 630.244 767C634.427 758.512 638.856 749.839 642.241 741C643.66 737.292 646.659 729.81 646.434 725.92C646.234 722.488 642.396 718.243 641 715C642.87 713.771 643.224 713.132 644 711L648 712C647.89 702.677 639.542 694.757 632 690z"/>
<path style="fill:#f5b89b; stroke:none;" d="M476 692C474.834 694.74 474.19 697.029 474 700C471.387 699.826 470.057 699.582 468 698C465.452 699.034 463.614 699.786 462 702C459.792 701.547 459.449 701.354 458 703L456 703C455.232 701.686 455.314 701.768 454 701L453 706C451.255 705.11 449.875 704.547 448 704C446.617 706.71 446.262 708.997 446 712L442 711C443.468 713.306 444.433 714.051 447 715C446.662 716.672 446.463 716.31 448 717C441.44 718.532 442.357 713.636 437.745 711.083C433.463 708.712 433.684 714.615 434 717L438 716C438.581 719.988 440.4 722.223 444 724C443.513 727.675 444.234 729.533 447 732C449.479 730.663 451.19 730.184 454 730C453.782 731.687 453.776 732.316 454 734C455.314 733.232 455.232 733.314 456 732L459 733C460.115 729.322 460.427 725.824 460 722C462.33 721.685 463.918 721.098 466 720L466 718C463.574 714.794 464.1 711.793 465 708C466.023 709.534 465.805 709.402 467 710C468.3 709.35 468 709.853 468 708L470 708C471.716 709.848 473.475 709.772 476 710C476.242 706.568 476.488 703.422 476 700C477.4 701.13 478.416 702.218 480 703L478 692L476 692z"/>
<path style="fill:#1f1e1c; stroke:none;" d="M657.333 693.667C657.278 693.722 657.222 694.778 657.667 694.333C657.722 694.278 657.778 693.222 657.333 693.667z"/>
<path style="fill:#cca996; stroke:none;" d="M649.333 696.667C649.278 696.722 649.222 697.778 649.667 697.333C649.722 697.278 649.778 696.222 649.333 696.667z"/>
<path style="fill:#1f1b1c; stroke:none;" d="M658.333 698.667C658.278 698.722 658.222 699.778 658.667 699.333C658.722 699.278 658.778 698.222 658.333 698.667z"/>
<path style="fill:#846960; stroke:none;" d="M650.333 699.667C650.278 699.722 650.222 700.778 650.667 700.333C650.722 700.278 650.778 699.222 650.333 699.667z"/>
<path style="fill:#4c220c; stroke:none;" d="M644.333 700.667C644.278 700.722 644.222 701.778 644.667 701.333C644.722 701.278 644.778 700.222 644.333 700.667z"/>
<path style="fill:#d7b5a9; stroke:none;" d="M650 701L650 705C650.71 703.24 650.71 702.76 650 701z"/>
<path style="fill:#908c8d; stroke:none;" d="M659.333 701.667C659.278 701.722 659.222 702.778 659.667 702.333C659.722 702.278 659.778 701.222 659.333 701.667z"/>
<path style="fill:#250f04; stroke:none;" d="M651 702L651 706C651.71 704.24 651.71 703.76 651 702z"/>
<path style="fill:#a36d51; stroke:none;" d="M645 703C645.545 704.635 645.365 704.455 647 705L647 703L645 703z"/>
<path style="fill:#2b2728; stroke:none;" d="M659.333 703.667C659.278 703.722 659.222 704.778 659.667 704.333C659.722 704.278 659.778 703.222 659.333 703.667z"/>
<path style="fill:#a38d82; stroke:none;" d="M505.333 705.667C505.278 705.722 505.222 706.778 505.667 706.333C505.722 706.278 505.778 705.222 505.333 705.667z"/>
<path style="fill:#e3dddd; stroke:none;" d="M660 705L660 709C660.71 707.24 660.71 706.76 660 705z"/>
<path style="fill:#5c4235; stroke:none;" d="M505.333 707.667C505.278 707.722 505.222 708.778 505.667 708.333C505.722 708.278 505.778 707.222 505.333 707.667z"/>
<path style="fill:#d0aa97; stroke:none;" d="M651 707L651 718C652.431 714.59 652.431 710.41 651 707z"/>
<path style="fill:#b5b1b0; stroke:none;" d="M660.333 709.667C660.278 709.722 660.222 710.778 660.667 710.333C660.722 710.278 660.778 709.222 660.333 709.667z"/>
<path style="fill:#8b8786; stroke:none;" d="M660 711L660 716C660.83 713.97 660.83 713.03 660 711z"/>
<path style="fill:#834f37; stroke:none;" d="M489.333 712.667C489.278 712.722 489.222 713.778 489.667 713.333C489.722 713.278 489.778 712.222 489.333 712.667z"/>
<path style="fill:#150000; stroke:none;" d="M504 713L501 721C503.206 719.468 505.055 717.862 507 716C506.027 714.73 505.27 713.973 504 713z"/>
<path style="fill:#cac6c5; stroke:none;" d="M660.333 716.667C660.278 716.722 660.222 717.778 660.667 717.333C660.722 717.278 660.778 716.222 660.333 716.667z"/>
<path style="fill:#fff1dc; stroke:none;" d="M395 718C396.517 720.828 398.287 722.975 397 726C399.921 733.015 403.155 739.797 405.656 747C407.472 752.23 408.82 758.524 412.557 762.787C416.153 766.889 422.02 768.339 427 770C436.86 773.289 447.52 775.207 457 779.518C471.795 786.244 481.476 801.21 496 808.442C504.588 812.719 516.695 809.056 526 810.184C534.261 811.186 541.753 815.782 550 817C544.017 811.598 532.068 806.745 524 806.093C516.208 805.464 508.341 807.091 501 803.598C486.474 796.685 476.738 782.148 464 772.764C451.797 763.774 435.055 763.753 423.054 755.147C417.023 750.821 416.56 743.447 413.205 737.425C411.191 733.809 408.139 731.725 405.58 728.64C402.797 725.283 400.321 720.751 398 717C396.203 717 396.479 717.014 395 718z"/>
<path style="fill:#21201e; stroke:none;" d="M659 719L659 722C659.696 720.446 659.696 720.554 659 719z"/>
<path style="fill:#502310; stroke:none;" d="M500.333 720.667C500.278 720.722 500.222 721.778 500.667 721.333C500.722 721.278 500.778 720.222 500.333 720.667z"/>
<path style="fill:#794126; stroke:none;" d="M499.333 721.667C499.278 721.722 499.222 722.778 499.667 722.333C499.722 722.278 499.778 721.222 499.333 721.667z"/>
<path style="fill:#ba7f61; stroke:none;" d="M498.333 722.667C498.278 722.722 498.222 723.778 498.667 723.333C498.722 723.278 498.778 722.222 498.333 722.667z"/>
<path style="fill:#5c4b43; stroke:none;" d="M564.667 746.333C564.222 746.778 565.278 746.722 565.333 746.667C565.778 746.222 564.722 746.278 564.667 746.333z"/>
<path style="fill:#7d6153; stroke:none;" d="M565 747L565 751C565.71 749.24 565.71 748.76 565 747z"/>
<path style="fill:#694837; stroke:none;" d="M565 751L565 754C565.696 752.446 565.696 752.554 565 751z"/>
<path style="fill:#9b7767; stroke:none;" d="M553.333 752.667C553.278 752.722 553.222 753.778 553.667 753.333C553.722 753.278 553.778 752.222 553.333 752.667z"/>
<path style="fill:#f6b99a; stroke:none;" d="M585 752C583.142 758.269 582.638 762.913 578 768L578 770C579.689 771.246 580.754 772.311 582 774L576 774L576 778L574 778L574 774L572 774L572 780C565.623 776.736 560.769 783.56 554 784C553.07 788.174 552.015 791.644 552 796L550 796L550 786L548 786L548 800C550.373 800.651 551.962 801.605 554 803C552.664 804.825 552.31 805.753 552 808C554.908 807.917 556.692 807.759 559 806C564.141 809.653 568.459 807.237 574 806L572 802C578.33 802 583.822 800.753 590 800L590 770C594.764 771.131 598.479 770.908 603 769C599.942 767.308 596.308 768.075 593 769L593 767L590 768C590.651 761.898 588.455 757.717 587 752L585 752z"/>
<path style="fill:#422112; stroke:none;" d="M553.333 754.667C553.278 754.722 553.222 755.778 553.667 755.333C553.722 755.278 553.778 754.222 553.333 754.667z"/>
<path style="fill:#c79c8b; stroke:none;" d="M552 756L552 759C552.696 757.446 552.696 757.554 552 756z"/>
<path style="fill:#f8b99a; stroke:none;" d="M462 759C461.801 761.106 461.544 761.543 460 763C458.936 758.036 450.205 760 446 760C450.675 763.642 456.237 766.14 460.715 770.123C472.047 780.204 484.094 796.605 500 799L500 794L496 794C497.737 790.413 497.459 788.18 494 786L494 784C496.409 781.896 495.99 779.094 496 776L488 776L490 772C487.196 770.536 484.637 767.016 482 770L480 770C478.686 768.382 478.123 768.307 476 768L476 764L480 764L480 762C473.625 760.578 468.672 757.43 462 759z"/>
<path style="fill:#915d45; stroke:none;" d="M552 759L552 761C553.635 760.455 553.455 760.635 554 759L552 759z"/>
<path style="fill:#282725; stroke:none;" d="M641.333 761.667C641.278 761.722 641.222 762.778 641.667 762.333C641.722 762.278 641.778 761.222 641.333 761.667z"/>
<path style="fill:#454442; stroke:none;" d="M641 763L641 766C641.696 764.446 641.696 764.554 641 763z"/>
<path style="fill:#8f8e8c; stroke:none;" d="M641.333 766.667C641.278 766.722 641.222 767.778 641.667 767.333C641.722 767.278 641.778 766.222 641.333 766.667z"/>
<path style="fill:#b5b4b2; stroke:none;" d="M641 768L641 771C641.696 769.446 641.696 769.554 641 768z"/>
<path style="fill:#44403f; stroke:none;" d="M640 772L640 775C640.696 773.446 640.696 773.554 640 772z"/>
<path style="fill:#615956; stroke:none;" d="M631.667 773.333C631.222 773.778 632.278 773.722 632.333 773.667C632.778 773.222 631.722 773.278 631.667 773.333z"/>
<path style="fill:#d1b6ab; stroke:none;" d="M631 774C631.031 775.832 630.92 775.559 632 777C631.749 775.549 631.685 775.248 631 774z"/>
<path style="fill:#908c8b; stroke:none;" d="M640.333 775.667C640.278 775.722 640.222 776.778 640.667 776.333C640.722 776.278 640.778 775.222 640.333 775.667z"/>
<path style="fill:#806355; stroke:none;" d="M631 777L631 780C631.696 778.446 631.696 778.554 631 777z"/>
<path style="fill:#e2dedd; stroke:none;" d="M640.333 777.667C640.278 777.722 640.222 778.778 640.667 778.333C640.722 778.278 640.778 777.222 640.333 777.667z"/>
<path style="fill:#472519; stroke:none;" d="M624 779L624 781C625.635 780.455 625.455 780.635 626 779L624 779z"/>
<path style="fill:#4e4c4d; stroke:none;" d="M639.333 779.667C639.278 779.722 639.222 780.778 639.667 780.333C639.722 780.278 639.778 779.222 639.333 779.667z"/>
<path style="fill:#814d35; stroke:none;" d="M623.333 780.667C623.278 780.722 623.222 781.778 623.667 781.333C623.722 781.278 623.778 780.222 623.333 780.667z"/>
<path style="fill:#a6a2a1; stroke:none;" d="M639.333 781.667C639.278 781.722 639.222 782.778 639.667 782.333C639.722 782.278 639.778 781.222 639.333 781.667z"/>
<path style="fill:#e5e1e0; stroke:none;" d="M638.333 787.667C638.278 787.722 638.222 788.778 638.667 788.333C638.722 788.278 638.778 787.222 638.333 787.667z"/>
<path style="fill:#6b6a68; stroke:none;" d="M637.333 789.667C637.278 789.722 637.222 790.778 637.667 790.333C637.722 790.278 637.778 789.222 637.333 789.667z"/>
<path style="fill:#cbc7bc; stroke:none;" d="M500 810C503.432 811.44 507.3 811 511 811C507.568 809.56 503.7 810 500 810z"/>
<path style="fill:#9d998e; stroke:none;" d="M511 810C513.052 810.874 514.747 810.953 517 811C514.948 810.126 513.253 810.047 511 810z"/>
<path style="fill:#756e64; stroke:none;" d="M517 810C518.248 810.685 518.549 810.749 520 811C518.752 810.315 518.452 810.251 517 810z"/>
<path style="fill:#453e34; stroke:none;" d="M520 810C521.769 810.779 523.036 810.912 525 811C523.231 810.221 521.964 810.088 520 810z"/>
<path style="fill:#625950; stroke:none;" d="M525 810C526.248 810.685 526.548 810.749 528 811C526.752 810.315 526.452 810.251 525 810z"/>
<path style="fill:#f4d0ba; stroke:none;" d="M553 817C554.543 818.267 555.048 818.489 557 819C555.542 817.919 554.752 817.564 553 817z"/>
</svg>
